G04 #@! TF.FileFunction,Legend,Bot*
%FSLAX46Y46*%
G04 Gerber Fmt 4.6, Leading zero omitted, Abs format (unit mm)*
G04 Created by KiCad (PCBNEW no-vcs-found-product) date Tue 26 Jan 2016 11:55:49 GMT*
%MOMM*%
G01*
G04 APERTURE LIST*
%ADD10C,0.100000*%
%ADD11C,0.250000*%
%ADD12C,0.150000*%
G04 APERTURE END LIST*
D10*
D11*
X234700810Y-109957381D02*
X234367477Y-110957381D01*
X234034143Y-109957381D01*
X233557953Y-110957381D02*
X233653191Y-110909762D01*
X233700810Y-110862143D01*
X233748429Y-110766905D01*
X233748429Y-110481190D01*
X233700810Y-110385952D01*
X233653191Y-110338333D01*
X233557953Y-110290714D01*
X233415095Y-110290714D01*
X233319857Y-110338333D01*
X233272238Y-110385952D01*
X233224619Y-110481190D01*
X233224619Y-110766905D01*
X233272238Y-110862143D01*
X233319857Y-110909762D01*
X233415095Y-110957381D01*
X233557953Y-110957381D01*
X232367476Y-110290714D02*
X232367476Y-110957381D01*
X232796048Y-110290714D02*
X232796048Y-110814524D01*
X232748429Y-110909762D01*
X232653191Y-110957381D01*
X232510333Y-110957381D01*
X232415095Y-110909762D01*
X232367476Y-110862143D01*
X232034143Y-110290714D02*
X231653191Y-110290714D01*
X231891286Y-109957381D02*
X231891286Y-110814524D01*
X231843667Y-110909762D01*
X231748429Y-110957381D01*
X231653191Y-110957381D01*
X234408333Y-107873571D02*
X234265476Y-107921190D01*
X234217857Y-107968810D01*
X234170238Y-108064048D01*
X234170238Y-108206905D01*
X234217857Y-108302143D01*
X234265476Y-108349762D01*
X234360714Y-108397381D01*
X234741667Y-108397381D01*
X234741667Y-107397381D01*
X234408333Y-107397381D01*
X234313095Y-107445000D01*
X234265476Y-107492619D01*
X234217857Y-107587857D01*
X234217857Y-107683095D01*
X234265476Y-107778333D01*
X234313095Y-107825952D01*
X234408333Y-107873571D01*
X234741667Y-107873571D01*
X233741667Y-107397381D02*
X233741667Y-108206905D01*
X233694048Y-108302143D01*
X233646429Y-108349762D01*
X233551191Y-108397381D01*
X233360714Y-108397381D01*
X233265476Y-108349762D01*
X233217857Y-108302143D01*
X233170238Y-108206905D01*
X233170238Y-107397381D01*
X232836905Y-107397381D02*
X232265476Y-107397381D01*
X232551191Y-108397381D02*
X232551191Y-107397381D01*
X234236904Y-104945000D02*
X234332142Y-104897381D01*
X234474999Y-104897381D01*
X234617857Y-104945000D01*
X234713095Y-105040238D01*
X234760714Y-105135476D01*
X234808333Y-105325952D01*
X234808333Y-105468810D01*
X234760714Y-105659286D01*
X234713095Y-105754524D01*
X234617857Y-105849762D01*
X234474999Y-105897381D01*
X234379761Y-105897381D01*
X234236904Y-105849762D01*
X234189285Y-105802143D01*
X234189285Y-105468810D01*
X234379761Y-105468810D01*
X233760714Y-105897381D02*
X233760714Y-104897381D01*
X233189285Y-105897381D01*
X233189285Y-104897381D01*
X232713095Y-105897381D02*
X232713095Y-104897381D01*
X232475000Y-104897381D01*
X232332142Y-104945000D01*
X232236904Y-105040238D01*
X232189285Y-105135476D01*
X232141666Y-105325952D01*
X232141666Y-105468810D01*
X232189285Y-105659286D01*
X232236904Y-105754524D01*
X232332142Y-105849762D01*
X232475000Y-105897381D01*
X232713095Y-105897381D01*
X234136904Y-102245000D02*
X234232142Y-102197381D01*
X234374999Y-102197381D01*
X234517857Y-102245000D01*
X234613095Y-102340238D01*
X234660714Y-102435476D01*
X234708333Y-102625952D01*
X234708333Y-102768810D01*
X234660714Y-102959286D01*
X234613095Y-103054524D01*
X234517857Y-103149762D01*
X234374999Y-103197381D01*
X234279761Y-103197381D01*
X234136904Y-103149762D01*
X234089285Y-103102143D01*
X234089285Y-102768810D01*
X234279761Y-102768810D01*
X233660714Y-103197381D02*
X233660714Y-102197381D01*
X233089285Y-103197381D01*
X233089285Y-102197381D01*
X232613095Y-103197381D02*
X232613095Y-102197381D01*
X232375000Y-102197381D01*
X232232142Y-102245000D01*
X232136904Y-102340238D01*
X232089285Y-102435476D01*
X232041666Y-102625952D01*
X232041666Y-102768810D01*
X232089285Y-102959286D01*
X232136904Y-103054524D01*
X232232142Y-103149762D01*
X232375000Y-103197381D01*
X232613095Y-103197381D01*
X222262809Y-109957381D02*
X221929476Y-110957381D01*
X221596142Y-109957381D01*
X221262809Y-110957381D02*
X221262809Y-110290714D01*
X221262809Y-109957381D02*
X221310428Y-110005000D01*
X221262809Y-110052619D01*
X221215190Y-110005000D01*
X221262809Y-109957381D01*
X221262809Y-110052619D01*
X220786619Y-110290714D02*
X220786619Y-110957381D01*
X220786619Y-110385952D02*
X220739000Y-110338333D01*
X220643762Y-110290714D01*
X220500904Y-110290714D01*
X220405666Y-110338333D01*
X220358047Y-110433571D01*
X220358047Y-110957381D01*
X222108333Y-107973571D02*
X221965476Y-108021190D01*
X221917857Y-108068810D01*
X221870238Y-108164048D01*
X221870238Y-108306905D01*
X221917857Y-108402143D01*
X221965476Y-108449762D01*
X222060714Y-108497381D01*
X222441667Y-108497381D01*
X222441667Y-107497381D01*
X222108333Y-107497381D01*
X222013095Y-107545000D01*
X221965476Y-107592619D01*
X221917857Y-107687857D01*
X221917857Y-107783095D01*
X221965476Y-107878333D01*
X222013095Y-107925952D01*
X222108333Y-107973571D01*
X222441667Y-107973571D01*
X221441667Y-107497381D02*
X221441667Y-108306905D01*
X221394048Y-108402143D01*
X221346429Y-108449762D01*
X221251191Y-108497381D01*
X221060714Y-108497381D01*
X220965476Y-108449762D01*
X220917857Y-108402143D01*
X220870238Y-108306905D01*
X220870238Y-107497381D01*
X220536905Y-107497381D02*
X219965476Y-107497381D01*
X220251191Y-108497381D02*
X220251191Y-107497381D01*
X222136904Y-104945000D02*
X222232142Y-104897381D01*
X222374999Y-104897381D01*
X222517857Y-104945000D01*
X222613095Y-105040238D01*
X222660714Y-105135476D01*
X222708333Y-105325952D01*
X222708333Y-105468810D01*
X222660714Y-105659286D01*
X222613095Y-105754524D01*
X222517857Y-105849762D01*
X222374999Y-105897381D01*
X222279761Y-105897381D01*
X222136904Y-105849762D01*
X222089285Y-105802143D01*
X222089285Y-105468810D01*
X222279761Y-105468810D01*
X221660714Y-105897381D02*
X221660714Y-104897381D01*
X221089285Y-105897381D01*
X221089285Y-104897381D01*
X220613095Y-105897381D02*
X220613095Y-104897381D01*
X220375000Y-104897381D01*
X220232142Y-104945000D01*
X220136904Y-105040238D01*
X220089285Y-105135476D01*
X220041666Y-105325952D01*
X220041666Y-105468810D01*
X220089285Y-105659286D01*
X220136904Y-105754524D01*
X220232142Y-105849762D01*
X220375000Y-105897381D01*
X220613095Y-105897381D01*
X222136904Y-102345000D02*
X222232142Y-102297381D01*
X222374999Y-102297381D01*
X222517857Y-102345000D01*
X222613095Y-102440238D01*
X222660714Y-102535476D01*
X222708333Y-102725952D01*
X222708333Y-102868810D01*
X222660714Y-103059286D01*
X222613095Y-103154524D01*
X222517857Y-103249762D01*
X222374999Y-103297381D01*
X222279761Y-103297381D01*
X222136904Y-103249762D01*
X222089285Y-103202143D01*
X222089285Y-102868810D01*
X222279761Y-102868810D01*
X221660714Y-103297381D02*
X221660714Y-102297381D01*
X221089285Y-103297381D01*
X221089285Y-102297381D01*
X220613095Y-103297381D02*
X220613095Y-102297381D01*
X220375000Y-102297381D01*
X220232142Y-102345000D01*
X220136904Y-102440238D01*
X220089285Y-102535476D01*
X220041666Y-102725952D01*
X220041666Y-102868810D01*
X220089285Y-103059286D01*
X220136904Y-103154524D01*
X220232142Y-103249762D01*
X220375000Y-103297381D01*
X220613095Y-103297381D01*
D12*
X230330000Y-109680000D02*
X230330000Y-109480000D01*
X230330000Y-103680000D02*
X230330000Y-103880000D01*
X224330000Y-103680000D02*
X224330000Y-103880000D01*
X224330000Y-109680000D02*
X224330000Y-109480000D01*
X224330000Y-107880000D02*
X224330000Y-105480000D01*
X230330000Y-107880000D02*
X230330000Y-105480000D01*
X230330000Y-109680000D02*
X224330000Y-109680000D01*
X224330000Y-103680000D02*
X230330000Y-103680000D01*
X229030000Y-106680000D02*
G75*
G03X229030000Y-106680000I-1700000J0D01*
G01*
X227663333Y-111084762D02*
X227520476Y-111132381D01*
X227282380Y-111132381D01*
X227187142Y-111084762D01*
X227139523Y-111037143D01*
X227091904Y-110941905D01*
X227091904Y-110846667D01*
X227139523Y-110751429D01*
X227187142Y-110703810D01*
X227282380Y-110656190D01*
X227472857Y-110608571D01*
X227568095Y-110560952D01*
X227615714Y-110513333D01*
X227663333Y-110418095D01*
X227663333Y-110322857D01*
X227615714Y-110227619D01*
X227568095Y-110180000D01*
X227472857Y-110132381D01*
X227234761Y-110132381D01*
X227091904Y-110180000D01*
X226758571Y-110132381D02*
X226520476Y-111132381D01*
X226329999Y-110418095D01*
X226139523Y-111132381D01*
X225901428Y-110132381D01*
X224996666Y-111132381D02*
X225568095Y-111132381D01*
X225282381Y-111132381D02*
X225282381Y-110132381D01*
X225377619Y-110275238D01*
X225472857Y-110370476D01*
X225568095Y-110418095D01*
M02*
