G04 #@! TF.FileFunction,Copper,L1,Top,Signal*
%FSLAX46Y46*%
G04 Gerber Fmt 4.6, Leading zero omitted, Abs format (unit mm)*
G04 Created by KiCad (PCBNEW no-vcs-found-product) date Tue 26 Jan 2016 11:55:49 GMT*
%MOMM*%
G01*
G04 APERTURE LIST*
%ADD10C,0.100000*%
%ADD11R,1.200000X0.750000*%
%ADD12R,0.590000X0.450000*%
%ADD13R,1.700000X0.650000*%
%ADD14R,0.900000X1.200000*%
%ADD15R,1.200000X0.900000*%
%ADD16R,2.032000X1.727200*%
%ADD17O,2.032000X1.727200*%
%ADD18C,0.700000*%
%ADD19C,0.250000*%
%ADD20C,0.254000*%
%ADD21C,0.508000*%
G04 APERTURE END LIST*
D10*
D11*
X223310000Y-102000000D03*
X221410000Y-102000000D03*
D12*
X225335000Y-102000000D03*
X227445000Y-102000000D03*
D13*
X225350000Y-105095000D03*
X225350000Y-106365000D03*
X225350000Y-107635000D03*
X225350000Y-108905000D03*
X232650000Y-108905000D03*
X232650000Y-107635000D03*
X232650000Y-106365000D03*
X232650000Y-105095000D03*
D14*
X221000000Y-110100000D03*
X221000000Y-107900000D03*
X223000000Y-110100000D03*
X223000000Y-107900000D03*
D15*
X230900000Y-102000000D03*
X233100000Y-102000000D03*
X227530000Y-111150000D03*
X225330000Y-111150000D03*
D16*
X218440000Y-102870000D03*
D17*
X218440000Y-105410000D03*
X218440000Y-107950000D03*
X218440000Y-110490000D03*
D16*
X236220000Y-110490000D03*
D17*
X236220000Y-107950000D03*
X236220000Y-105410000D03*
X236220000Y-102870000D03*
D11*
X230370000Y-111090000D03*
X232270000Y-111090000D03*
D18*
X233175000Y-103745000D03*
X230415000Y-103475000D03*
X228230000Y-105600000D03*
X227435000Y-105155000D03*
D19*
X232650000Y-105095000D02*
X232650000Y-104270000D01*
X232650000Y-104270000D02*
X233175000Y-103745000D01*
D20*
X223310000Y-102000000D02*
X223990000Y-102000000D01*
X230255000Y-103635000D02*
X230415000Y-103475000D01*
X227995000Y-103635000D02*
X230255000Y-103635000D01*
X225675000Y-101315000D02*
X227995000Y-103635000D01*
X224675000Y-101315000D02*
X225675000Y-101315000D01*
X223990000Y-102000000D02*
X224675000Y-101315000D01*
X232650000Y-105095000D02*
X232650000Y-106380000D01*
X232650000Y-106380000D02*
X232685000Y-106415000D01*
X232685000Y-106415000D02*
X232650000Y-106365000D01*
X232825000Y-105055000D02*
X232650000Y-105095000D01*
X225350000Y-108905000D02*
X224005000Y-108905000D01*
X224005000Y-108905000D02*
X223135000Y-108035000D01*
X223135000Y-108035000D02*
X223000000Y-107900000D01*
D19*
X223000000Y-107900000D02*
X223000000Y-102270000D01*
X223000000Y-102270000D02*
X223380000Y-101890000D01*
X223380000Y-101890000D02*
X223310000Y-102000000D01*
D20*
X225335000Y-102000000D02*
X225410000Y-102000000D01*
X225410000Y-102000000D02*
X228230000Y-104820000D01*
X228230000Y-104820000D02*
X228230000Y-105600000D01*
D19*
X221000000Y-107900000D02*
X221000000Y-103580000D01*
X221350000Y-103230000D02*
X221350000Y-101970000D01*
X221000000Y-103580000D02*
X221350000Y-103230000D01*
X221350000Y-101970000D02*
X221410000Y-102000000D01*
X221480000Y-102010000D02*
X221410000Y-102000000D01*
X218440000Y-107950000D02*
X220910000Y-107950000D01*
X220910000Y-107950000D02*
X220960000Y-107900000D01*
X220960000Y-107900000D02*
X221000000Y-107900000D01*
X230370000Y-111090000D02*
X230370000Y-108280000D01*
X228470000Y-106380000D02*
X228470000Y-106450000D01*
X230370000Y-108280000D02*
X228470000Y-106380000D01*
X233100000Y-102000000D02*
X232920000Y-102000000D01*
X232920000Y-102000000D02*
X228470000Y-106450000D01*
X228470000Y-106450000D02*
X228500000Y-106420000D01*
X228500000Y-106420000D02*
X225510000Y-106420000D01*
X225510000Y-106420000D02*
X225350000Y-106365000D01*
X232270000Y-111715000D02*
X232270000Y-111090000D01*
X231744988Y-112240012D02*
X232270000Y-111715000D01*
X227680000Y-111150000D02*
X228770012Y-112240012D01*
X228770012Y-112240012D02*
X231744988Y-112240012D01*
X227530000Y-111150000D02*
X227680000Y-111150000D01*
D21*
X232270000Y-111090000D02*
X232270000Y-110340000D01*
X232270000Y-110340000D02*
X232700000Y-109910000D01*
X232700000Y-109910000D02*
X232700000Y-108970000D01*
D19*
X232700000Y-108970000D02*
X232650000Y-108905000D01*
D21*
X232650000Y-107635000D02*
X232650000Y-108940000D01*
D19*
X232650000Y-108940000D02*
X232710000Y-109000000D01*
D21*
X232710000Y-109000000D02*
X234630000Y-109000000D01*
X234630000Y-109000000D02*
X236140000Y-110510000D01*
D19*
X236140000Y-110510000D02*
X236220000Y-110490000D01*
X225330000Y-111150000D02*
X225480000Y-111150000D01*
X225480000Y-111150000D02*
X226255001Y-110374999D01*
X233960001Y-101224999D02*
X231825001Y-101224999D01*
X226255001Y-110374999D02*
X228774999Y-110374999D01*
X228774999Y-110374999D02*
X229444999Y-111044999D01*
X229444999Y-111725001D02*
X229509999Y-111790001D01*
X229444999Y-111044999D02*
X229444999Y-111725001D01*
X229509999Y-111790001D02*
X231230001Y-111790001D01*
X231230001Y-111790001D02*
X231295001Y-111725001D01*
X234025001Y-101289999D02*
X233960001Y-101224999D01*
X231295001Y-111725001D02*
X231295001Y-104299997D01*
X231295001Y-104299997D02*
X232819997Y-102775001D01*
X232819997Y-102775001D02*
X233960001Y-102775001D01*
X231050000Y-102000000D02*
X230900000Y-102000000D01*
X233960001Y-102775001D02*
X234025001Y-102710001D01*
X234025001Y-102710001D02*
X234025001Y-101289999D01*
X231825001Y-101224999D02*
X231050000Y-102000000D01*
X227445000Y-102000000D02*
X229590000Y-102000000D01*
X229590000Y-102000000D02*
X230870000Y-102000000D01*
X230870000Y-102000000D02*
X230940000Y-101930000D01*
X230940000Y-101930000D02*
X230900000Y-102000000D01*
X225350000Y-105095000D02*
X227375000Y-105095000D01*
X227375000Y-105095000D02*
X227435000Y-105155000D01*
D21*
X227345000Y-108965000D02*
X227345000Y-108205000D01*
X226785000Y-107645000D02*
X225345000Y-107645000D01*
X224262012Y-109795988D02*
X226514012Y-109795988D01*
X226514012Y-109795988D02*
X227345000Y-108965000D01*
X223958000Y-110100000D02*
X224262012Y-109795988D01*
X223000000Y-110100000D02*
X223958000Y-110100000D01*
X227345000Y-108205000D02*
X226785000Y-107645000D01*
D20*
X225345000Y-107645000D02*
X225350000Y-107635000D01*
D19*
X223000000Y-110100000D02*
X223000000Y-110070000D01*
X224760000Y-107670000D02*
X225280000Y-107670000D01*
X225280000Y-107670000D02*
X225350000Y-107635000D01*
D21*
X221000000Y-110100000D02*
X223030000Y-110100000D01*
D19*
X223030000Y-110100000D02*
X223040000Y-110090000D01*
X223040000Y-110090000D02*
X223000000Y-110100000D01*
D21*
X218440000Y-110490000D02*
X221040000Y-110490000D01*
D19*
X221040000Y-110490000D02*
X221030000Y-110480000D01*
X221030000Y-110480000D02*
X221030000Y-110090000D01*
X221030000Y-110090000D02*
X221000000Y-110100000D01*
D20*
G36*
X220355073Y-101164327D02*
X220212623Y-101375360D01*
X220162560Y-101625000D01*
X220162560Y-102375000D01*
X220209537Y-102617123D01*
X220349327Y-102829927D01*
X220543919Y-102961279D01*
X220462599Y-103042599D01*
X220297852Y-103289161D01*
X220240000Y-103580000D01*
X220240000Y-106744125D01*
X220095073Y-106839327D01*
X219952623Y-107050360D01*
X219924619Y-107190000D01*
X219884648Y-107190000D01*
X219684415Y-106890330D01*
X219374931Y-106683539D01*
X219790732Y-106312036D01*
X220044709Y-105784791D01*
X220047358Y-105769026D01*
X219926217Y-105537000D01*
X218567000Y-105537000D01*
X218567000Y-105557000D01*
X218313000Y-105557000D01*
X218313000Y-105537000D01*
X216953783Y-105537000D01*
X216832642Y-105769026D01*
X216835291Y-105784791D01*
X217089268Y-106312036D01*
X217505069Y-106683539D01*
X217195585Y-106890330D01*
X216870729Y-107376511D01*
X216756655Y-107950000D01*
X216870729Y-108523489D01*
X217195585Y-109009670D01*
X217510366Y-109220000D01*
X217195585Y-109430330D01*
X216870729Y-109916511D01*
X216756655Y-110490000D01*
X216870729Y-111063489D01*
X217195585Y-111549670D01*
X217681766Y-111874526D01*
X218255255Y-111988600D01*
X218624745Y-111988600D01*
X219198234Y-111874526D01*
X219684415Y-111549670D01*
X219798453Y-111379000D01*
X221040000Y-111379000D01*
X221198663Y-111347440D01*
X221450000Y-111347440D01*
X221692123Y-111300463D01*
X221904927Y-111160673D01*
X222000294Y-111019391D01*
X222089327Y-111154927D01*
X222300360Y-111297377D01*
X222550000Y-111347440D01*
X223450000Y-111347440D01*
X223692123Y-111300463D01*
X223904927Y-111160673D01*
X224030550Y-110974569D01*
X224082560Y-110964224D01*
X224082560Y-111600000D01*
X224129537Y-111842123D01*
X224269327Y-112054927D01*
X224480360Y-112197377D01*
X224730000Y-112247440D01*
X225930000Y-112247440D01*
X226172123Y-112200463D01*
X226384927Y-112060673D01*
X226429614Y-111994471D01*
X226469327Y-112054927D01*
X226680360Y-112197377D01*
X226930000Y-112247440D01*
X227702638Y-112247440D01*
X227775198Y-112320000D01*
X217464092Y-112320000D01*
X216610000Y-111465908D01*
X216610000Y-103155750D01*
X216789000Y-103155750D01*
X216789000Y-103859910D01*
X216885673Y-104093299D01*
X217064302Y-104271927D01*
X217261861Y-104353759D01*
X217089268Y-104507964D01*
X216835291Y-105035209D01*
X216832642Y-105050974D01*
X216953783Y-105283000D01*
X218313000Y-105283000D01*
X218313000Y-102997000D01*
X218567000Y-102997000D01*
X218567000Y-105283000D01*
X219926217Y-105283000D01*
X220047358Y-105050974D01*
X220044709Y-105035209D01*
X219790732Y-104507964D01*
X219618139Y-104353759D01*
X219815698Y-104271927D01*
X219994327Y-104093299D01*
X220091000Y-103859910D01*
X220091000Y-103155750D01*
X219932250Y-102997000D01*
X218567000Y-102997000D01*
X218313000Y-102997000D01*
X218313000Y-102997000D01*
X216947750Y-102997000D01*
X216789000Y-103155750D01*
X216610000Y-103155750D01*
X216610000Y-101894092D01*
X216624002Y-101880090D01*
X216789000Y-101880090D01*
X216789000Y-102584250D01*
X216947750Y-102743000D01*
X218313000Y-102743000D01*
X218313000Y-101530150D01*
X218567000Y-101530150D01*
X218567000Y-102743000D01*
X219932250Y-102743000D01*
X220091000Y-102584250D01*
X220091000Y-101880090D01*
X219994327Y-101646701D01*
X219815698Y-101468073D01*
X219582309Y-101371400D01*
X218725750Y-101371400D01*
X218567000Y-101530150D01*
X218313000Y-101530150D01*
X218313000Y-101530150D01*
X218154250Y-101371400D01*
X217297691Y-101371400D01*
X217064302Y-101468073D01*
X216885673Y-101646701D01*
X216789000Y-101880090D01*
X216624002Y-101880090D01*
X217464092Y-101040000D01*
X220544337Y-101040000D01*
X220355073Y-101164327D01*
X220355073Y-101164327D01*
G37*
X220355073Y-101164327D02*
X220212623Y-101375360D01*
X220162560Y-101625000D01*
X220162560Y-102375000D01*
X220209537Y-102617123D01*
X220349327Y-102829927D01*
X220543919Y-102961279D01*
X220462599Y-103042599D01*
X220297852Y-103289161D01*
X220240000Y-103580000D01*
X220240000Y-106744125D01*
X220095073Y-106839327D01*
X219952623Y-107050360D01*
X219924619Y-107190000D01*
X219884648Y-107190000D01*
X219684415Y-106890330D01*
X219374931Y-106683539D01*
X219790732Y-106312036D01*
X220044709Y-105784791D01*
X220047358Y-105769026D01*
X219926217Y-105537000D01*
X218567000Y-105537000D01*
X218567000Y-105557000D01*
X218313000Y-105557000D01*
X218313000Y-105537000D01*
X216953783Y-105537000D01*
X216832642Y-105769026D01*
X216835291Y-105784791D01*
X217089268Y-106312036D01*
X217505069Y-106683539D01*
X217195585Y-106890330D01*
X216870729Y-107376511D01*
X216756655Y-107950000D01*
X216870729Y-108523489D01*
X217195585Y-109009670D01*
X217510366Y-109220000D01*
X217195585Y-109430330D01*
X216870729Y-109916511D01*
X216756655Y-110490000D01*
X216870729Y-111063489D01*
X217195585Y-111549670D01*
X217681766Y-111874526D01*
X218255255Y-111988600D01*
X218624745Y-111988600D01*
X219198234Y-111874526D01*
X219684415Y-111549670D01*
X219798453Y-111379000D01*
X221040000Y-111379000D01*
X221198663Y-111347440D01*
X221450000Y-111347440D01*
X221692123Y-111300463D01*
X221904927Y-111160673D01*
X222000294Y-111019391D01*
X222089327Y-111154927D01*
X222300360Y-111297377D01*
X222550000Y-111347440D01*
X223450000Y-111347440D01*
X223692123Y-111300463D01*
X223904927Y-111160673D01*
X224030550Y-110974569D01*
X224082560Y-110964224D01*
X224082560Y-111600000D01*
X224129537Y-111842123D01*
X224269327Y-112054927D01*
X224480360Y-112197377D01*
X224730000Y-112247440D01*
X225930000Y-112247440D01*
X226172123Y-112200463D01*
X226384927Y-112060673D01*
X226429614Y-111994471D01*
X226469327Y-112054927D01*
X226680360Y-112197377D01*
X226930000Y-112247440D01*
X227702638Y-112247440D01*
X227775198Y-112320000D01*
X217464092Y-112320000D01*
X216610000Y-111465908D01*
X216610000Y-103155750D01*
X216789000Y-103155750D01*
X216789000Y-103859910D01*
X216885673Y-104093299D01*
X217064302Y-104271927D01*
X217261861Y-104353759D01*
X217089268Y-104507964D01*
X216835291Y-105035209D01*
X216832642Y-105050974D01*
X216953783Y-105283000D01*
X218313000Y-105283000D01*
X218313000Y-102997000D01*
X218567000Y-102997000D01*
X218567000Y-105283000D01*
X219926217Y-105283000D01*
X220047358Y-105050974D01*
X220044709Y-105035209D01*
X219790732Y-104507964D01*
X219618139Y-104353759D01*
X219815698Y-104271927D01*
X219994327Y-104093299D01*
X220091000Y-103859910D01*
X220091000Y-103155750D01*
X219932250Y-102997000D01*
X218567000Y-102997000D01*
X218313000Y-102997000D01*
X218313000Y-102997000D01*
X216947750Y-102997000D01*
X216789000Y-103155750D01*
X216610000Y-103155750D01*
X216610000Y-101894092D01*
X216624002Y-101880090D01*
X216789000Y-101880090D01*
X216789000Y-102584250D01*
X216947750Y-102743000D01*
X218313000Y-102743000D01*
X218313000Y-101530150D01*
X218567000Y-101530150D01*
X218567000Y-102743000D01*
X219932250Y-102743000D01*
X220091000Y-102584250D01*
X220091000Y-101880090D01*
X219994327Y-101646701D01*
X219815698Y-101468073D01*
X219582309Y-101371400D01*
X218725750Y-101371400D01*
X218567000Y-101530150D01*
X218313000Y-101530150D01*
X218313000Y-101530150D01*
X218154250Y-101371400D01*
X217297691Y-101371400D01*
X217064302Y-101468073D01*
X216885673Y-101646701D01*
X216789000Y-101880090D01*
X216624002Y-101880090D01*
X217464092Y-101040000D01*
X220544337Y-101040000D01*
X220355073Y-101164327D01*
G36*
X238050000Y-101894092D02*
X238050000Y-111465908D01*
X237195908Y-112320000D01*
X232739802Y-112320000D01*
X232807401Y-112252401D01*
X232905525Y-112105547D01*
X233112123Y-112065463D01*
X233324927Y-111925673D01*
X233467377Y-111714640D01*
X233517440Y-111465000D01*
X233517440Y-110715000D01*
X233470463Y-110472877D01*
X233421921Y-110398981D01*
X233521329Y-110250206D01*
X233589000Y-109910000D01*
X233589000Y-109889000D01*
X234261764Y-109889000D01*
X234556560Y-110183796D01*
X234556560Y-111353600D01*
X234603537Y-111595723D01*
X234743327Y-111808527D01*
X234954360Y-111950977D01*
X235204000Y-112001040D01*
X237236000Y-112001040D01*
X237478123Y-111954063D01*
X237690927Y-111814273D01*
X237833377Y-111603240D01*
X237883440Y-111353600D01*
X237883440Y-109626400D01*
X237836463Y-109384277D01*
X237696673Y-109171473D01*
X237485640Y-109029023D01*
X237447037Y-109021282D01*
X237464415Y-109009670D01*
X237789271Y-108523489D01*
X237903345Y-107950000D01*
X237789271Y-107376511D01*
X237464415Y-106890330D01*
X237154931Y-106683539D01*
X237570732Y-106312036D01*
X237824709Y-105784791D01*
X237827358Y-105769026D01*
X237706217Y-105537000D01*
X236347000Y-105537000D01*
X236347000Y-105557000D01*
X236093000Y-105557000D01*
X236093000Y-105537000D01*
X234733783Y-105537000D01*
X234612642Y-105769026D01*
X234615291Y-105784791D01*
X234869268Y-106312036D01*
X235285069Y-106683539D01*
X234975585Y-106890330D01*
X234650729Y-107376511D01*
X234536655Y-107950000D01*
X234568680Y-108111000D01*
X234117158Y-108111000D01*
X234147440Y-107960000D01*
X234147440Y-107310000D01*
X234100463Y-107067877D01*
X234056249Y-107000569D01*
X234097377Y-106939640D01*
X234147440Y-106690000D01*
X234147440Y-106040000D01*
X234100463Y-105797877D01*
X234056249Y-105730569D01*
X234097377Y-105669640D01*
X234147440Y-105420000D01*
X234147440Y-104770000D01*
X234100463Y-104527877D01*
X233975515Y-104337667D01*
X234009555Y-104303686D01*
X234159828Y-103941788D01*
X234160170Y-103549931D01*
X234139267Y-103499342D01*
X234250840Y-103477149D01*
X234497402Y-103312402D01*
X234562402Y-103247402D01*
X234727149Y-103000840D01*
X234727912Y-102997002D01*
X234733782Y-102997002D01*
X234612642Y-103229026D01*
X234615291Y-103244791D01*
X234869268Y-103772036D01*
X235281108Y-104140000D01*
X234869268Y-104507964D01*
X234615291Y-105035209D01*
X234612642Y-105050974D01*
X234733783Y-105283000D01*
X236093000Y-105283000D01*
X236093000Y-102997000D01*
X236347000Y-102997000D01*
X236347000Y-105283000D01*
X237706217Y-105283000D01*
X237827358Y-105050974D01*
X237824709Y-105035209D01*
X237570732Y-104507964D01*
X237158892Y-104140000D01*
X237570732Y-103772036D01*
X237824709Y-103244791D01*
X237827358Y-103229026D01*
X237706217Y-102997000D01*
X236347000Y-102997000D01*
X236093000Y-102997000D01*
X236093000Y-102997000D01*
X236073000Y-102997000D01*
X236073000Y-102743000D01*
X236093000Y-102743000D01*
X236093000Y-101529076D01*
X236347000Y-101529076D01*
X236347000Y-102743000D01*
X237706217Y-102743000D01*
X237827358Y-102510974D01*
X237824709Y-102495209D01*
X237570732Y-101967964D01*
X237134320Y-101578046D01*
X236581913Y-101384816D01*
X236347000Y-101529076D01*
X236093000Y-101529076D01*
X236093000Y-101529076D01*
X235858087Y-101384816D01*
X235305680Y-101578046D01*
X234869268Y-101967964D01*
X234785001Y-102142899D01*
X234785001Y-101289999D01*
X234735273Y-101040000D01*
X237195908Y-101040000D01*
X238050000Y-101894092D01*
X238050000Y-101894092D01*
G37*
X238050000Y-101894092D02*
X238050000Y-111465908D01*
X237195908Y-112320000D01*
X232739802Y-112320000D01*
X232807401Y-112252401D01*
X232905525Y-112105547D01*
X233112123Y-112065463D01*
X233324927Y-111925673D01*
X233467377Y-111714640D01*
X233517440Y-111465000D01*
X233517440Y-110715000D01*
X233470463Y-110472877D01*
X233421921Y-110398981D01*
X233521329Y-110250206D01*
X233589000Y-109910000D01*
X233589000Y-109889000D01*
X234261764Y-109889000D01*
X234556560Y-110183796D01*
X234556560Y-111353600D01*
X234603537Y-111595723D01*
X234743327Y-111808527D01*
X234954360Y-111950977D01*
X235204000Y-112001040D01*
X237236000Y-112001040D01*
X237478123Y-111954063D01*
X237690927Y-111814273D01*
X237833377Y-111603240D01*
X237883440Y-111353600D01*
X237883440Y-109626400D01*
X237836463Y-109384277D01*
X237696673Y-109171473D01*
X237485640Y-109029023D01*
X237447037Y-109021282D01*
X237464415Y-109009670D01*
X237789271Y-108523489D01*
X237903345Y-107950000D01*
X237789271Y-107376511D01*
X237464415Y-106890330D01*
X237154931Y-106683539D01*
X237570732Y-106312036D01*
X237824709Y-105784791D01*
X237827358Y-105769026D01*
X237706217Y-105537000D01*
X236347000Y-105537000D01*
X236347000Y-105557000D01*
X236093000Y-105557000D01*
X236093000Y-105537000D01*
X234733783Y-105537000D01*
X234612642Y-105769026D01*
X234615291Y-105784791D01*
X234869268Y-106312036D01*
X235285069Y-106683539D01*
X234975585Y-106890330D01*
X234650729Y-107376511D01*
X234536655Y-107950000D01*
X234568680Y-108111000D01*
X234117158Y-108111000D01*
X234147440Y-107960000D01*
X234147440Y-107310000D01*
X234100463Y-107067877D01*
X234056249Y-107000569D01*
X234097377Y-106939640D01*
X234147440Y-106690000D01*
X234147440Y-106040000D01*
X234100463Y-105797877D01*
X234056249Y-105730569D01*
X234097377Y-105669640D01*
X234147440Y-105420000D01*
X234147440Y-104770000D01*
X234100463Y-104527877D01*
X233975515Y-104337667D01*
X234009555Y-104303686D01*
X234159828Y-103941788D01*
X234160170Y-103549931D01*
X234139267Y-103499342D01*
X234250840Y-103477149D01*
X234497402Y-103312402D01*
X234562402Y-103247402D01*
X234727149Y-103000840D01*
X234727912Y-102997002D01*
X234733782Y-102997002D01*
X234612642Y-103229026D01*
X234615291Y-103244791D01*
X234869268Y-103772036D01*
X235281108Y-104140000D01*
X234869268Y-104507964D01*
X234615291Y-105035209D01*
X234612642Y-105050974D01*
X234733783Y-105283000D01*
X236093000Y-105283000D01*
X236093000Y-102997000D01*
X236347000Y-102997000D01*
X236347000Y-105283000D01*
X237706217Y-105283000D01*
X237827358Y-105050974D01*
X237824709Y-105035209D01*
X237570732Y-104507964D01*
X237158892Y-104140000D01*
X237570732Y-103772036D01*
X237824709Y-103244791D01*
X237827358Y-103229026D01*
X237706217Y-102997000D01*
X236347000Y-102997000D01*
X236093000Y-102997000D01*
X236093000Y-102997000D01*
X236073000Y-102997000D01*
X236073000Y-102743000D01*
X236093000Y-102743000D01*
X236093000Y-101529076D01*
X236347000Y-101529076D01*
X236347000Y-102743000D01*
X237706217Y-102743000D01*
X237827358Y-102510974D01*
X237824709Y-102495209D01*
X237570732Y-101967964D01*
X237134320Y-101578046D01*
X236581913Y-101384816D01*
X236347000Y-101529076D01*
X236093000Y-101529076D01*
X236093000Y-101529076D01*
X235858087Y-101384816D01*
X235305680Y-101578046D01*
X234869268Y-101967964D01*
X234785001Y-102142899D01*
X234785001Y-101289999D01*
X234735273Y-101040000D01*
X237195908Y-101040000D01*
X238050000Y-101894092D01*
G36*
X224579327Y-102679927D02*
X224790360Y-102822377D01*
X225040000Y-102872440D01*
X225204810Y-102872440D01*
X227389060Y-105056691D01*
X227245172Y-105403212D01*
X227244948Y-105660000D01*
X226787908Y-105660000D01*
X226835000Y-105546310D01*
X226835000Y-105380750D01*
X226676250Y-105222000D01*
X225477000Y-105222000D01*
X225477000Y-105242000D01*
X225223000Y-105242000D01*
X225223000Y-105222000D01*
X224023750Y-105222000D01*
X223865000Y-105380750D01*
X223865000Y-105546310D01*
X223941954Y-105732093D01*
X223902623Y-105790360D01*
X223852560Y-106040000D01*
X223852560Y-106690000D01*
X223878424Y-106823304D01*
X223760000Y-106743367D01*
X223760000Y-104643690D01*
X223865000Y-104643690D01*
X223865000Y-104809250D01*
X224023750Y-104968000D01*
X225223000Y-104968000D01*
X225223000Y-104293750D01*
X225477000Y-104293750D01*
X225477000Y-104968000D01*
X226676250Y-104968000D01*
X226835000Y-104809250D01*
X226835000Y-104643690D01*
X226738327Y-104410301D01*
X226559698Y-104231673D01*
X226326309Y-104135000D01*
X225635750Y-104135000D01*
X225477000Y-104293750D01*
X225223000Y-104293750D01*
X225223000Y-104293750D01*
X225064250Y-104135000D01*
X224373691Y-104135000D01*
X224140302Y-104231673D01*
X223961673Y-104410301D01*
X223865000Y-104643690D01*
X223760000Y-104643690D01*
X223760000Y-103022440D01*
X223910000Y-103022440D01*
X224152123Y-102975463D01*
X224364927Y-102835673D01*
X224507377Y-102624640D01*
X224515711Y-102583083D01*
X224579327Y-102679927D01*
X224579327Y-102679927D01*
G37*
X224579327Y-102679927D02*
X224790360Y-102822377D01*
X225040000Y-102872440D01*
X225204810Y-102872440D01*
X227389060Y-105056691D01*
X227245172Y-105403212D01*
X227244948Y-105660000D01*
X226787908Y-105660000D01*
X226835000Y-105546310D01*
X226835000Y-105380750D01*
X226676250Y-105222000D01*
X225477000Y-105222000D01*
X225477000Y-105242000D01*
X225223000Y-105242000D01*
X225223000Y-105222000D01*
X224023750Y-105222000D01*
X223865000Y-105380750D01*
X223865000Y-105546310D01*
X223941954Y-105732093D01*
X223902623Y-105790360D01*
X223852560Y-106040000D01*
X223852560Y-106690000D01*
X223878424Y-106823304D01*
X223760000Y-106743367D01*
X223760000Y-104643690D01*
X223865000Y-104643690D01*
X223865000Y-104809250D01*
X224023750Y-104968000D01*
X225223000Y-104968000D01*
X225223000Y-104293750D01*
X225477000Y-104293750D01*
X225477000Y-104968000D01*
X226676250Y-104968000D01*
X226835000Y-104809250D01*
X226835000Y-104643690D01*
X226738327Y-104410301D01*
X226559698Y-104231673D01*
X226326309Y-104135000D01*
X225635750Y-104135000D01*
X225477000Y-104293750D01*
X225223000Y-104293750D01*
X225223000Y-104293750D01*
X225064250Y-104135000D01*
X224373691Y-104135000D01*
X224140302Y-104231673D01*
X223961673Y-104410301D01*
X223865000Y-104643690D01*
X223760000Y-104643690D01*
X223760000Y-103022440D01*
X223910000Y-103022440D01*
X224152123Y-102975463D01*
X224364927Y-102835673D01*
X224507377Y-102624640D01*
X224515711Y-102583083D01*
X224579327Y-102679927D01*
M02*
