G04 #@! TF.FileFunction,Copper,L2,Bot,Signal*
%FSLAX46Y46*%
G04 Gerber Fmt 4.6, Leading zero omitted, Abs format (unit mm)*
G04 Created by KiCad (PCBNEW no-vcs-found-product) date Tue 26 Jan 2016 11:55:49 GMT*
%MOMM*%
G01*
G04 APERTURE LIST*
%ADD10C,0.100000*%
%ADD11R,2.750000X1.000000*%
%ADD12R,2.032000X1.727200*%
%ADD13O,2.032000X1.727200*%
%ADD14C,0.700000*%
%ADD15C,0.250000*%
%ADD16C,0.254000*%
%ADD17C,0.508000*%
G04 APERTURE END LIST*
D10*
D11*
X230205000Y-108680000D03*
X224455000Y-108680000D03*
X224455000Y-104680000D03*
X230205000Y-104680000D03*
D12*
X218440000Y-102870000D03*
D13*
X218440000Y-105410000D03*
X218440000Y-107950000D03*
X218440000Y-110490000D03*
D12*
X236220000Y-110490000D03*
D13*
X236220000Y-107950000D03*
X236220000Y-105410000D03*
X236220000Y-102870000D03*
D14*
X233175000Y-103745000D03*
X230415000Y-103475000D03*
X228230000Y-105600000D03*
X227435000Y-105155000D03*
D15*
X232905000Y-103475000D02*
X230415000Y-103475000D01*
X233175000Y-103745000D02*
X232905000Y-103475000D01*
D16*
X230415000Y-103475000D02*
X230645000Y-103705000D01*
D15*
X224455000Y-108680000D02*
X219170000Y-108680000D01*
X219170000Y-108680000D02*
X218440000Y-107950000D01*
X230205000Y-108680000D02*
X224455000Y-108680000D01*
D16*
X230205000Y-108680000D02*
X235360000Y-108680000D01*
X235360000Y-108680000D02*
X236065000Y-107975000D01*
X236065000Y-107975000D02*
X236220000Y-107950000D01*
X228230000Y-105600000D02*
X230220000Y-107590000D01*
X230220000Y-107590000D02*
X230220000Y-108400000D01*
X230220000Y-108400000D02*
X230205000Y-108680000D01*
D15*
X234060000Y-104680000D02*
X234060000Y-102760000D01*
D17*
X230205000Y-104680000D02*
X234060000Y-104680000D01*
D15*
X234170000Y-102870000D02*
X236220000Y-102870000D01*
X234060000Y-102760000D02*
X234170000Y-102870000D01*
X220480000Y-104680000D02*
X220480000Y-103050000D01*
D17*
X224455000Y-104680000D02*
X220480000Y-104680000D01*
D15*
X220300000Y-102870000D02*
X218440000Y-102870000D01*
X220480000Y-103050000D02*
X220300000Y-102870000D01*
X227435000Y-105155000D02*
X227435000Y-104705000D01*
X227425000Y-104695000D02*
X227425000Y-104680000D01*
X227435000Y-104705000D02*
X227425000Y-104695000D01*
X224455000Y-104680000D02*
X227425000Y-104680000D01*
X227425000Y-104680000D02*
X230205000Y-104680000D01*
D17*
X236220000Y-102870000D02*
X236220000Y-105520000D01*
D15*
X236220000Y-105520000D02*
X236260000Y-105560000D01*
X236260000Y-105560000D02*
X236220000Y-105410000D01*
X235840000Y-102900000D02*
X235900000Y-102900000D01*
X235900000Y-102900000D02*
X235920000Y-102880000D01*
X235920000Y-102880000D02*
X236220000Y-102870000D01*
X229860000Y-104680000D02*
X229940000Y-104760000D01*
X229940000Y-104760000D02*
X230205000Y-104680000D01*
D17*
X218440000Y-102870000D02*
X218440000Y-105450000D01*
D15*
X218440000Y-105450000D02*
X218530000Y-105540000D01*
X218530000Y-105540000D02*
X218440000Y-105410000D01*
X218750000Y-102950000D02*
X218440000Y-102870000D01*
D16*
G36*
X238050000Y-101894092D02*
X238050000Y-111465908D01*
X237195908Y-112320000D01*
X217464092Y-112320000D01*
X216610000Y-111465908D01*
X216610000Y-107950000D01*
X216756655Y-107950000D01*
X216870729Y-108523489D01*
X217195585Y-109009670D01*
X217510366Y-109220000D01*
X217195585Y-109430330D01*
X216870729Y-109916511D01*
X216756655Y-110490000D01*
X216870729Y-111063489D01*
X217195585Y-111549670D01*
X217681766Y-111874526D01*
X218255255Y-111988600D01*
X218624745Y-111988600D01*
X219198234Y-111874526D01*
X219684415Y-111549670D01*
X220009271Y-111063489D01*
X220123345Y-110490000D01*
X220009271Y-109916511D01*
X219690876Y-109440000D01*
X222491280Y-109440000D01*
X222619327Y-109634927D01*
X222830360Y-109777377D01*
X223080000Y-109827440D01*
X225830000Y-109827440D01*
X226072123Y-109780463D01*
X226284927Y-109640673D01*
X226420384Y-109440000D01*
X228241280Y-109440000D01*
X228369327Y-109634927D01*
X228580360Y-109777377D01*
X228830000Y-109827440D01*
X231580000Y-109827440D01*
X231822123Y-109780463D01*
X232034927Y-109640673D01*
X232169034Y-109442000D01*
X234593540Y-109442000D01*
X234556560Y-109626400D01*
X234556560Y-111353600D01*
X234603537Y-111595723D01*
X234743327Y-111808527D01*
X234954360Y-111950977D01*
X235204000Y-112001040D01*
X237236000Y-112001040D01*
X237478123Y-111954063D01*
X237690927Y-111814273D01*
X237833377Y-111603240D01*
X237883440Y-111353600D01*
X237883440Y-109626400D01*
X237836463Y-109384277D01*
X237696673Y-109171473D01*
X237485640Y-109029023D01*
X237447037Y-109021282D01*
X237464415Y-109009670D01*
X237789271Y-108523489D01*
X237903345Y-107950000D01*
X237789271Y-107376511D01*
X237464415Y-106890330D01*
X237154931Y-106683539D01*
X237570732Y-106312036D01*
X237824709Y-105784791D01*
X237827358Y-105769026D01*
X237706217Y-105537000D01*
X236347000Y-105537000D01*
X236347000Y-105557000D01*
X236093000Y-105557000D01*
X236093000Y-105537000D01*
X234733783Y-105537000D01*
X234612642Y-105769026D01*
X234615291Y-105784791D01*
X234869268Y-106312036D01*
X235285069Y-106683539D01*
X234975585Y-106890330D01*
X234650729Y-107376511D01*
X234543020Y-107918000D01*
X232167406Y-107918000D01*
X232040673Y-107725073D01*
X231829640Y-107582623D01*
X231580000Y-107532560D01*
X230970574Y-107532560D01*
X230923996Y-107298395D01*
X230758815Y-107051185D01*
X229522630Y-105815000D01*
X229919250Y-105815000D01*
X230078000Y-105656250D01*
X230078000Y-104807000D01*
X230332000Y-104807000D01*
X230332000Y-105656250D01*
X230490750Y-105815000D01*
X231706309Y-105815000D01*
X231939698Y-105718327D01*
X232118327Y-105539699D01*
X232215000Y-105306310D01*
X232215000Y-104965750D01*
X232056250Y-104807000D01*
X230332000Y-104807000D01*
X230078000Y-104807000D01*
X230078000Y-104807000D01*
X230058000Y-104807000D01*
X230058000Y-104553000D01*
X230078000Y-104553000D01*
X230078000Y-104533000D01*
X230332000Y-104533000D01*
X230332000Y-104553000D01*
X232056250Y-104553000D01*
X232215000Y-104394250D01*
X232215000Y-104235000D01*
X232311693Y-104235000D01*
X232339471Y-104302229D01*
X232616314Y-104579555D01*
X232978212Y-104729828D01*
X233370069Y-104730170D01*
X233732229Y-104580529D01*
X234009555Y-104303686D01*
X234159828Y-103941788D01*
X234160170Y-103549931D01*
X234027575Y-103229026D01*
X234612642Y-103229026D01*
X234615291Y-103244791D01*
X234869268Y-103772036D01*
X235281108Y-104140000D01*
X234869268Y-104507964D01*
X234615291Y-105035209D01*
X234612642Y-105050974D01*
X234733783Y-105283000D01*
X236093000Y-105283000D01*
X236093000Y-102997000D01*
X236347000Y-102997000D01*
X236347000Y-105283000D01*
X237706217Y-105283000D01*
X237827358Y-105050974D01*
X237824709Y-105035209D01*
X237570732Y-104507964D01*
X237158892Y-104140000D01*
X237570732Y-103772036D01*
X237824709Y-103244791D01*
X237827358Y-103229026D01*
X237706217Y-102997000D01*
X236347000Y-102997000D01*
X236093000Y-102997000D01*
X236093000Y-102997000D01*
X234733783Y-102997000D01*
X234612642Y-103229026D01*
X234027575Y-103229026D01*
X234010529Y-103187771D01*
X233733686Y-102910445D01*
X233371788Y-102760172D01*
X233131037Y-102759962D01*
X232905000Y-102715000D01*
X231048111Y-102715000D01*
X230973686Y-102640445D01*
X230661885Y-102510974D01*
X234612642Y-102510974D01*
X234733783Y-102743000D01*
X236093000Y-102743000D01*
X236093000Y-101529076D01*
X236347000Y-101529076D01*
X236347000Y-102743000D01*
X237706217Y-102743000D01*
X237827358Y-102510974D01*
X237824709Y-102495209D01*
X237570732Y-101967964D01*
X237134320Y-101578046D01*
X236581913Y-101384816D01*
X236347000Y-101529076D01*
X236093000Y-101529076D01*
X236093000Y-101529076D01*
X235858087Y-101384816D01*
X235305680Y-101578046D01*
X234869268Y-101967964D01*
X234615291Y-102495209D01*
X234612642Y-102510974D01*
X230661885Y-102510974D01*
X230611788Y-102490172D01*
X230219931Y-102489830D01*
X229857771Y-102639471D01*
X229580445Y-102916314D01*
X229430172Y-103278212D01*
X229429939Y-103545000D01*
X228703691Y-103545000D01*
X228470302Y-103641673D01*
X228291673Y-103820301D01*
X228195000Y-104053690D01*
X228195000Y-104394250D01*
X228353748Y-104552998D01*
X228195000Y-104552998D01*
X228195000Y-104614970D01*
X228034931Y-104614830D01*
X227672771Y-104764471D01*
X227395445Y-105041314D01*
X227245172Y-105403212D01*
X227244830Y-105795069D01*
X227394471Y-106157229D01*
X227671314Y-106434555D01*
X228033212Y-106584828D01*
X228137289Y-106584919D01*
X229084930Y-107532560D01*
X228830000Y-107532560D01*
X228587877Y-107579537D01*
X228375073Y-107719327D01*
X228239616Y-107920000D01*
X226418720Y-107920000D01*
X226290673Y-107725073D01*
X226079640Y-107582623D01*
X225830000Y-107532560D01*
X223080000Y-107532560D01*
X222837877Y-107579537D01*
X222625073Y-107719327D01*
X222489616Y-107920000D01*
X220117378Y-107920000D01*
X220009271Y-107376511D01*
X219684415Y-106890330D01*
X219374931Y-106683539D01*
X219790732Y-106312036D01*
X220044709Y-105784791D01*
X220047358Y-105769026D01*
X219926217Y-105537000D01*
X218567000Y-105537000D01*
X218567000Y-105557000D01*
X218313000Y-105557000D01*
X218313000Y-105537000D01*
X216953783Y-105537000D01*
X216832642Y-105769026D01*
X216835291Y-105784791D01*
X217089268Y-106312036D01*
X217505069Y-106683539D01*
X217195585Y-106890330D01*
X216870729Y-107376511D01*
X216756655Y-107950000D01*
X216610000Y-107950000D01*
X216610000Y-103155750D01*
X216789000Y-103155750D01*
X216789000Y-103859910D01*
X216885673Y-104093299D01*
X217064302Y-104271927D01*
X217261861Y-104353759D01*
X217089268Y-104507964D01*
X216835291Y-105035209D01*
X216832642Y-105050974D01*
X216953783Y-105283000D01*
X218313000Y-105283000D01*
X218313000Y-102997000D01*
X218567000Y-102997000D01*
X218567000Y-105283000D01*
X219926217Y-105283000D01*
X220047358Y-105050974D01*
X220044709Y-105035209D01*
X220011250Y-104965750D01*
X222445000Y-104965750D01*
X222445000Y-105306310D01*
X222541673Y-105539699D01*
X222720302Y-105718327D01*
X222953691Y-105815000D01*
X224169250Y-105815000D01*
X224328000Y-105656250D01*
X224328000Y-104807000D01*
X224582000Y-104807000D01*
X224582000Y-105656250D01*
X224740750Y-105815000D01*
X225956309Y-105815000D01*
X226189698Y-105718327D01*
X226368327Y-105539699D01*
X226465000Y-105306310D01*
X226465000Y-104965750D01*
X226306250Y-104807000D01*
X224582000Y-104807000D01*
X224328000Y-104807000D01*
X224328000Y-104807000D01*
X222603750Y-104807000D01*
X222445000Y-104965750D01*
X220011250Y-104965750D01*
X219790732Y-104507964D01*
X219618139Y-104353759D01*
X219815698Y-104271927D01*
X219994327Y-104093299D01*
X220010734Y-104053690D01*
X222445000Y-104053690D01*
X222445000Y-104394250D01*
X222603750Y-104553000D01*
X224328000Y-104553000D01*
X224328000Y-103703750D01*
X224582000Y-103703750D01*
X224582000Y-104553000D01*
X226306250Y-104553000D01*
X226465000Y-104394250D01*
X226465000Y-104053690D01*
X226368327Y-103820301D01*
X226189698Y-103641673D01*
X225956309Y-103545000D01*
X224740750Y-103545000D01*
X224582000Y-103703750D01*
X224328000Y-103703750D01*
X224328000Y-103703750D01*
X224169250Y-103545000D01*
X222953691Y-103545000D01*
X222720302Y-103641673D01*
X222541673Y-103820301D01*
X222445000Y-104053690D01*
X220010734Y-104053690D01*
X220091000Y-103859910D01*
X220091000Y-103155750D01*
X219932250Y-102997000D01*
X218567000Y-102997000D01*
X218313000Y-102997000D01*
X218313000Y-102997000D01*
X216947750Y-102997000D01*
X216789000Y-103155750D01*
X216610000Y-103155750D01*
X216610000Y-101894092D01*
X216624002Y-101880090D01*
X216789000Y-101880090D01*
X216789000Y-102584250D01*
X216947750Y-102743000D01*
X218313000Y-102743000D01*
X218313000Y-101530150D01*
X218567000Y-101530150D01*
X218567000Y-102743000D01*
X219932250Y-102743000D01*
X220091000Y-102584250D01*
X220091000Y-101880090D01*
X219994327Y-101646701D01*
X219815698Y-101468073D01*
X219582309Y-101371400D01*
X218725750Y-101371400D01*
X218567000Y-101530150D01*
X218313000Y-101530150D01*
X218313000Y-101530150D01*
X218154250Y-101371400D01*
X217297691Y-101371400D01*
X217064302Y-101468073D01*
X216885673Y-101646701D01*
X216789000Y-101880090D01*
X216624002Y-101880090D01*
X217464092Y-101040000D01*
X237195908Y-101040000D01*
X238050000Y-101894092D01*
X238050000Y-101894092D01*
G37*
X238050000Y-101894092D02*
X238050000Y-111465908D01*
X237195908Y-112320000D01*
X217464092Y-112320000D01*
X216610000Y-111465908D01*
X216610000Y-107950000D01*
X216756655Y-107950000D01*
X216870729Y-108523489D01*
X217195585Y-109009670D01*
X217510366Y-109220000D01*
X217195585Y-109430330D01*
X216870729Y-109916511D01*
X216756655Y-110490000D01*
X216870729Y-111063489D01*
X217195585Y-111549670D01*
X217681766Y-111874526D01*
X218255255Y-111988600D01*
X218624745Y-111988600D01*
X219198234Y-111874526D01*
X219684415Y-111549670D01*
X220009271Y-111063489D01*
X220123345Y-110490000D01*
X220009271Y-109916511D01*
X219690876Y-109440000D01*
X222491280Y-109440000D01*
X222619327Y-109634927D01*
X222830360Y-109777377D01*
X223080000Y-109827440D01*
X225830000Y-109827440D01*
X226072123Y-109780463D01*
X226284927Y-109640673D01*
X226420384Y-109440000D01*
X228241280Y-109440000D01*
X228369327Y-109634927D01*
X228580360Y-109777377D01*
X228830000Y-109827440D01*
X231580000Y-109827440D01*
X231822123Y-109780463D01*
X232034927Y-109640673D01*
X232169034Y-109442000D01*
X234593540Y-109442000D01*
X234556560Y-109626400D01*
X234556560Y-111353600D01*
X234603537Y-111595723D01*
X234743327Y-111808527D01*
X234954360Y-111950977D01*
X235204000Y-112001040D01*
X237236000Y-112001040D01*
X237478123Y-111954063D01*
X237690927Y-111814273D01*
X237833377Y-111603240D01*
X237883440Y-111353600D01*
X237883440Y-109626400D01*
X237836463Y-109384277D01*
X237696673Y-109171473D01*
X237485640Y-109029023D01*
X237447037Y-109021282D01*
X237464415Y-109009670D01*
X237789271Y-108523489D01*
X237903345Y-107950000D01*
X237789271Y-107376511D01*
X237464415Y-106890330D01*
X237154931Y-106683539D01*
X237570732Y-106312036D01*
X237824709Y-105784791D01*
X237827358Y-105769026D01*
X237706217Y-105537000D01*
X236347000Y-105537000D01*
X236347000Y-105557000D01*
X236093000Y-105557000D01*
X236093000Y-105537000D01*
X234733783Y-105537000D01*
X234612642Y-105769026D01*
X234615291Y-105784791D01*
X234869268Y-106312036D01*
X235285069Y-106683539D01*
X234975585Y-106890330D01*
X234650729Y-107376511D01*
X234543020Y-107918000D01*
X232167406Y-107918000D01*
X232040673Y-107725073D01*
X231829640Y-107582623D01*
X231580000Y-107532560D01*
X230970574Y-107532560D01*
X230923996Y-107298395D01*
X230758815Y-107051185D01*
X229522630Y-105815000D01*
X229919250Y-105815000D01*
X230078000Y-105656250D01*
X230078000Y-104807000D01*
X230332000Y-104807000D01*
X230332000Y-105656250D01*
X230490750Y-105815000D01*
X231706309Y-105815000D01*
X231939698Y-105718327D01*
X232118327Y-105539699D01*
X232215000Y-105306310D01*
X232215000Y-104965750D01*
X232056250Y-104807000D01*
X230332000Y-104807000D01*
X230078000Y-104807000D01*
X230078000Y-104807000D01*
X230058000Y-104807000D01*
X230058000Y-104553000D01*
X230078000Y-104553000D01*
X230078000Y-104533000D01*
X230332000Y-104533000D01*
X230332000Y-104553000D01*
X232056250Y-104553000D01*
X232215000Y-104394250D01*
X232215000Y-104235000D01*
X232311693Y-104235000D01*
X232339471Y-104302229D01*
X232616314Y-104579555D01*
X232978212Y-104729828D01*
X233370069Y-104730170D01*
X233732229Y-104580529D01*
X234009555Y-104303686D01*
X234159828Y-103941788D01*
X234160170Y-103549931D01*
X234027575Y-103229026D01*
X234612642Y-103229026D01*
X234615291Y-103244791D01*
X234869268Y-103772036D01*
X235281108Y-104140000D01*
X234869268Y-104507964D01*
X234615291Y-105035209D01*
X234612642Y-105050974D01*
X234733783Y-105283000D01*
X236093000Y-105283000D01*
X236093000Y-102997000D01*
X236347000Y-102997000D01*
X236347000Y-105283000D01*
X237706217Y-105283000D01*
X237827358Y-105050974D01*
X237824709Y-105035209D01*
X237570732Y-104507964D01*
X237158892Y-104140000D01*
X237570732Y-103772036D01*
X237824709Y-103244791D01*
X237827358Y-103229026D01*
X237706217Y-102997000D01*
X236347000Y-102997000D01*
X236093000Y-102997000D01*
X236093000Y-102997000D01*
X234733783Y-102997000D01*
X234612642Y-103229026D01*
X234027575Y-103229026D01*
X234010529Y-103187771D01*
X233733686Y-102910445D01*
X233371788Y-102760172D01*
X233131037Y-102759962D01*
X232905000Y-102715000D01*
X231048111Y-102715000D01*
X230973686Y-102640445D01*
X230661885Y-102510974D01*
X234612642Y-102510974D01*
X234733783Y-102743000D01*
X236093000Y-102743000D01*
X236093000Y-101529076D01*
X236347000Y-101529076D01*
X236347000Y-102743000D01*
X237706217Y-102743000D01*
X237827358Y-102510974D01*
X237824709Y-102495209D01*
X237570732Y-101967964D01*
X237134320Y-101578046D01*
X236581913Y-101384816D01*
X236347000Y-101529076D01*
X236093000Y-101529076D01*
X236093000Y-101529076D01*
X235858087Y-101384816D01*
X235305680Y-101578046D01*
X234869268Y-101967964D01*
X234615291Y-102495209D01*
X234612642Y-102510974D01*
X230661885Y-102510974D01*
X230611788Y-102490172D01*
X230219931Y-102489830D01*
X229857771Y-102639471D01*
X229580445Y-102916314D01*
X229430172Y-103278212D01*
X229429939Y-103545000D01*
X228703691Y-103545000D01*
X228470302Y-103641673D01*
X228291673Y-103820301D01*
X228195000Y-104053690D01*
X228195000Y-104394250D01*
X228353748Y-104552998D01*
X228195000Y-104552998D01*
X228195000Y-104614970D01*
X228034931Y-104614830D01*
X227672771Y-104764471D01*
X227395445Y-105041314D01*
X227245172Y-105403212D01*
X227244830Y-105795069D01*
X227394471Y-106157229D01*
X227671314Y-106434555D01*
X228033212Y-106584828D01*
X228137289Y-106584919D01*
X229084930Y-107532560D01*
X228830000Y-107532560D01*
X228587877Y-107579537D01*
X228375073Y-107719327D01*
X228239616Y-107920000D01*
X226418720Y-107920000D01*
X226290673Y-107725073D01*
X226079640Y-107582623D01*
X225830000Y-107532560D01*
X223080000Y-107532560D01*
X222837877Y-107579537D01*
X222625073Y-107719327D01*
X222489616Y-107920000D01*
X220117378Y-107920000D01*
X220009271Y-107376511D01*
X219684415Y-106890330D01*
X219374931Y-106683539D01*
X219790732Y-106312036D01*
X220044709Y-105784791D01*
X220047358Y-105769026D01*
X219926217Y-105537000D01*
X218567000Y-105537000D01*
X218567000Y-105557000D01*
X218313000Y-105557000D01*
X218313000Y-105537000D01*
X216953783Y-105537000D01*
X216832642Y-105769026D01*
X216835291Y-105784791D01*
X217089268Y-106312036D01*
X217505069Y-106683539D01*
X217195585Y-106890330D01*
X216870729Y-107376511D01*
X216756655Y-107950000D01*
X216610000Y-107950000D01*
X216610000Y-103155750D01*
X216789000Y-103155750D01*
X216789000Y-103859910D01*
X216885673Y-104093299D01*
X217064302Y-104271927D01*
X217261861Y-104353759D01*
X217089268Y-104507964D01*
X216835291Y-105035209D01*
X216832642Y-105050974D01*
X216953783Y-105283000D01*
X218313000Y-105283000D01*
X218313000Y-102997000D01*
X218567000Y-102997000D01*
X218567000Y-105283000D01*
X219926217Y-105283000D01*
X220047358Y-105050974D01*
X220044709Y-105035209D01*
X220011250Y-104965750D01*
X222445000Y-104965750D01*
X222445000Y-105306310D01*
X222541673Y-105539699D01*
X222720302Y-105718327D01*
X222953691Y-105815000D01*
X224169250Y-105815000D01*
X224328000Y-105656250D01*
X224328000Y-104807000D01*
X224582000Y-104807000D01*
X224582000Y-105656250D01*
X224740750Y-105815000D01*
X225956309Y-105815000D01*
X226189698Y-105718327D01*
X226368327Y-105539699D01*
X226465000Y-105306310D01*
X226465000Y-104965750D01*
X226306250Y-104807000D01*
X224582000Y-104807000D01*
X224328000Y-104807000D01*
X224328000Y-104807000D01*
X222603750Y-104807000D01*
X222445000Y-104965750D01*
X220011250Y-104965750D01*
X219790732Y-104507964D01*
X219618139Y-104353759D01*
X219815698Y-104271927D01*
X219994327Y-104093299D01*
X220010734Y-104053690D01*
X222445000Y-104053690D01*
X222445000Y-104394250D01*
X222603750Y-104553000D01*
X224328000Y-104553000D01*
X224328000Y-103703750D01*
X224582000Y-103703750D01*
X224582000Y-104553000D01*
X226306250Y-104553000D01*
X226465000Y-104394250D01*
X226465000Y-104053690D01*
X226368327Y-103820301D01*
X226189698Y-103641673D01*
X225956309Y-103545000D01*
X224740750Y-103545000D01*
X224582000Y-103703750D01*
X224328000Y-103703750D01*
X224328000Y-103703750D01*
X224169250Y-103545000D01*
X222953691Y-103545000D01*
X222720302Y-103641673D01*
X222541673Y-103820301D01*
X222445000Y-104053690D01*
X220010734Y-104053690D01*
X220091000Y-103859910D01*
X220091000Y-103155750D01*
X219932250Y-102997000D01*
X218567000Y-102997000D01*
X218313000Y-102997000D01*
X218313000Y-102997000D01*
X216947750Y-102997000D01*
X216789000Y-103155750D01*
X216610000Y-103155750D01*
X216610000Y-101894092D01*
X216624002Y-101880090D01*
X216789000Y-101880090D01*
X216789000Y-102584250D01*
X216947750Y-102743000D01*
X218313000Y-102743000D01*
X218313000Y-101530150D01*
X218567000Y-101530150D01*
X218567000Y-102743000D01*
X219932250Y-102743000D01*
X220091000Y-102584250D01*
X220091000Y-101880090D01*
X219994327Y-101646701D01*
X219815698Y-101468073D01*
X219582309Y-101371400D01*
X218725750Y-101371400D01*
X218567000Y-101530150D01*
X218313000Y-101530150D01*
X218313000Y-101530150D01*
X218154250Y-101371400D01*
X217297691Y-101371400D01*
X217064302Y-101468073D01*
X216885673Y-101646701D01*
X216789000Y-101880090D01*
X216624002Y-101880090D01*
X217464092Y-101040000D01*
X237195908Y-101040000D01*
X238050000Y-101894092D01*
M02*
