G04 #@! TF.FileFunction,Legend,Top*
%FSLAX46Y46*%
G04 Gerber Fmt 4.6, Leading zero omitted, Abs format (unit mm)*
G04 Created by KiCad (PCBNEW 4.1.0-alpha+201606291451+6956~45~ubuntu14.04.1-product) date Thu Jun 30 17:16:48 2016*
%MOMM*%
%LPD*%
G01*
G04 APERTURE LIST*
%ADD10C,0.100000*%
%ADD11C,0.150000*%
%ADD12R,1.300000X1.600000*%
%ADD13R,1.600000X1.300000*%
%ADD14R,2.432000X2.127200*%
%ADD15O,2.432000X2.127200*%
%ADD16R,1.600000X1.150000*%
%ADD17R,1.950000X1.000000*%
%ADD18R,3.699460X2.099260*%
G04 APERTURE END LIST*
D10*
D11*
X232810000Y-110435000D02*
X232810000Y-109435000D01*
X234160000Y-109435000D02*
X234160000Y-110435000D01*
X221725000Y-110480000D02*
X222725000Y-110480000D01*
X222725000Y-111830000D02*
X221725000Y-111830000D01*
X225930000Y-110475000D02*
X226930000Y-110475000D01*
X226930000Y-111825000D02*
X225930000Y-111825000D01*
X221750000Y-107395000D02*
X221750000Y-108395000D01*
X220400000Y-108395000D02*
X220400000Y-107395000D01*
X223690000Y-107385000D02*
X223690000Y-108385000D01*
X222340000Y-108385000D02*
X222340000Y-107385000D01*
X232690000Y-106015000D02*
X232690000Y-105015000D01*
X234040000Y-105015000D02*
X234040000Y-106015000D01*
X237490000Y-109220000D02*
X237490000Y-101600000D01*
X234950000Y-109220000D02*
X234950000Y-101600000D01*
X234670000Y-112040000D02*
X234670000Y-110490000D01*
X237490000Y-101600000D02*
X234950000Y-101600000D01*
X234950000Y-109220000D02*
X237490000Y-109220000D01*
X237770000Y-110490000D02*
X237770000Y-112040000D01*
X237770000Y-112040000D02*
X234670000Y-112040000D01*
X217170000Y-104140000D02*
X217170000Y-111760000D01*
X219710000Y-104140000D02*
X219710000Y-111760000D01*
X219990000Y-101320000D02*
X219990000Y-102870000D01*
X217170000Y-111760000D02*
X219710000Y-111760000D01*
X219710000Y-104140000D02*
X217170000Y-104140000D01*
X216890000Y-102870000D02*
X216890000Y-101320000D01*
X216890000Y-101320000D02*
X219990000Y-101320000D01*
X230175000Y-110595000D02*
X230875000Y-110595000D01*
X230875000Y-111795000D02*
X230175000Y-111795000D01*
X221725000Y-103755000D02*
X222425000Y-103755000D01*
X222425000Y-104955000D02*
X221725000Y-104955000D01*
X222485000Y-103185000D02*
X221785000Y-103185000D01*
X221785000Y-101985000D02*
X222485000Y-101985000D01*
X226190000Y-104680000D02*
X226190000Y-104825000D01*
X230340000Y-104680000D02*
X230340000Y-104825000D01*
X230340000Y-109830000D02*
X230340000Y-109685000D01*
X226190000Y-109830000D02*
X226190000Y-109685000D01*
X226190000Y-104680000D02*
X230340000Y-104680000D01*
X226190000Y-109830000D02*
X230340000Y-109830000D01*
X226190000Y-104825000D02*
X224790000Y-104825000D01*
X228605420Y-101955000D02*
X228455560Y-101955000D01*
X229453780Y-101955000D02*
X229654440Y-101955000D01*
X228605420Y-101955000D02*
X228605420Y-102704300D01*
X228605420Y-101955000D02*
X228605420Y-101253960D01*
X228605420Y-101955000D02*
X229453780Y-101253960D01*
X229453780Y-101253960D02*
X229453780Y-102656040D01*
X229453780Y-102656040D02*
X228605420Y-101955000D01*
X232601666Y-109871666D02*
X232268333Y-110105000D01*
X232601666Y-110271666D02*
X231901666Y-110271666D01*
X231901666Y-110005000D01*
X231935000Y-109938333D01*
X231968333Y-109905000D01*
X232035000Y-109871666D01*
X232135000Y-109871666D01*
X232201666Y-109905000D01*
X232235000Y-109938333D01*
X232268333Y-110005000D01*
X232268333Y-110271666D01*
X231901666Y-109271666D02*
X231901666Y-109405000D01*
X231935000Y-109471666D01*
X231968333Y-109505000D01*
X232068333Y-109571666D01*
X232201666Y-109605000D01*
X232468333Y-109605000D01*
X232535000Y-109571666D01*
X232568333Y-109538333D01*
X232601666Y-109471666D01*
X232601666Y-109338333D01*
X232568333Y-109271666D01*
X232535000Y-109238333D01*
X232468333Y-109205000D01*
X232301666Y-109205000D01*
X232235000Y-109238333D01*
X232201666Y-109271666D01*
X232168333Y-109338333D01*
X232168333Y-109471666D01*
X232201666Y-109538333D01*
X232235000Y-109571666D01*
X232301666Y-109605000D01*
X222138333Y-112801666D02*
X221905000Y-112468333D01*
X221738333Y-112801666D02*
X221738333Y-112101666D01*
X222005000Y-112101666D01*
X222071666Y-112135000D01*
X222105000Y-112168333D01*
X222138333Y-112235000D01*
X222138333Y-112335000D01*
X222105000Y-112401666D01*
X222071666Y-112435000D01*
X222005000Y-112468333D01*
X221738333Y-112468333D01*
X222771666Y-112101666D02*
X222438333Y-112101666D01*
X222405000Y-112435000D01*
X222438333Y-112401666D01*
X222505000Y-112368333D01*
X222671666Y-112368333D01*
X222738333Y-112401666D01*
X222771666Y-112435000D01*
X222805000Y-112501666D01*
X222805000Y-112668333D01*
X222771666Y-112735000D01*
X222738333Y-112768333D01*
X222671666Y-112801666D01*
X222505000Y-112801666D01*
X222438333Y-112768333D01*
X222405000Y-112735000D01*
X226328333Y-112811666D02*
X226095000Y-112478333D01*
X225928333Y-112811666D02*
X225928333Y-112111666D01*
X226195000Y-112111666D01*
X226261666Y-112145000D01*
X226295000Y-112178333D01*
X226328333Y-112245000D01*
X226328333Y-112345000D01*
X226295000Y-112411666D01*
X226261666Y-112445000D01*
X226195000Y-112478333D01*
X225928333Y-112478333D01*
X226928333Y-112345000D02*
X226928333Y-112811666D01*
X226761666Y-112078333D02*
X226595000Y-112578333D01*
X227028333Y-112578333D01*
X222361666Y-109841666D02*
X222028333Y-110075000D01*
X222361666Y-110241666D02*
X221661666Y-110241666D01*
X221661666Y-109975000D01*
X221695000Y-109908333D01*
X221728333Y-109875000D01*
X221795000Y-109841666D01*
X221895000Y-109841666D01*
X221961666Y-109875000D01*
X221995000Y-109908333D01*
X222028333Y-109975000D01*
X222028333Y-110241666D01*
X222361666Y-109175000D02*
X222361666Y-109575000D01*
X222361666Y-109375000D02*
X221661666Y-109375000D01*
X221761666Y-109441666D01*
X221828333Y-109508333D01*
X221861666Y-109575000D01*
X224401666Y-109621666D02*
X224068333Y-109855000D01*
X224401666Y-110021666D02*
X223701666Y-110021666D01*
X223701666Y-109755000D01*
X223735000Y-109688333D01*
X223768333Y-109655000D01*
X223835000Y-109621666D01*
X223935000Y-109621666D01*
X224001666Y-109655000D01*
X224035000Y-109688333D01*
X224068333Y-109755000D01*
X224068333Y-110021666D01*
X223768333Y-109355000D02*
X223735000Y-109321666D01*
X223701666Y-109255000D01*
X223701666Y-109088333D01*
X223735000Y-109021666D01*
X223768333Y-108988333D01*
X223835000Y-108955000D01*
X223901666Y-108955000D01*
X224001666Y-108988333D01*
X224401666Y-109388333D01*
X224401666Y-108955000D01*
X231648333Y-104251666D02*
X231415000Y-103918333D01*
X231248333Y-104251666D02*
X231248333Y-103551666D01*
X231515000Y-103551666D01*
X231581666Y-103585000D01*
X231615000Y-103618333D01*
X231648333Y-103685000D01*
X231648333Y-103785000D01*
X231615000Y-103851666D01*
X231581666Y-103885000D01*
X231515000Y-103918333D01*
X231248333Y-103918333D01*
X231881666Y-103551666D02*
X232315000Y-103551666D01*
X232081666Y-103818333D01*
X232181666Y-103818333D01*
X232248333Y-103851666D01*
X232281666Y-103885000D01*
X232315000Y-103951666D01*
X232315000Y-104118333D01*
X232281666Y-104185000D01*
X232248333Y-104218333D01*
X232181666Y-104251666D01*
X231981666Y-104251666D01*
X231915000Y-104218333D01*
X231881666Y-104185000D01*
X235218333Y-101201666D02*
X235218333Y-100501666D01*
X235485000Y-100501666D01*
X235551666Y-100535000D01*
X235585000Y-100568333D01*
X235618333Y-100635000D01*
X235618333Y-100735000D01*
X235585000Y-100801666D01*
X235551666Y-100835000D01*
X235485000Y-100868333D01*
X235218333Y-100868333D01*
X235885000Y-100568333D02*
X235918333Y-100535000D01*
X235985000Y-100501666D01*
X236151666Y-100501666D01*
X236218333Y-100535000D01*
X236251666Y-100568333D01*
X236285000Y-100635000D01*
X236285000Y-100701666D01*
X236251666Y-100801666D01*
X235851666Y-101201666D01*
X236285000Y-101201666D01*
X217918333Y-101211666D02*
X217918333Y-100511666D01*
X218185000Y-100511666D01*
X218251666Y-100545000D01*
X218285000Y-100578333D01*
X218318333Y-100645000D01*
X218318333Y-100745000D01*
X218285000Y-100811666D01*
X218251666Y-100845000D01*
X218185000Y-100878333D01*
X217918333Y-100878333D01*
X218985000Y-101211666D02*
X218585000Y-101211666D01*
X218785000Y-101211666D02*
X218785000Y-100511666D01*
X218718333Y-100611666D01*
X218651666Y-100678333D01*
X218585000Y-100711666D01*
X230368333Y-112695000D02*
X230335000Y-112728333D01*
X230235000Y-112761666D01*
X230168333Y-112761666D01*
X230068333Y-112728333D01*
X230001666Y-112661666D01*
X229968333Y-112595000D01*
X229935000Y-112461666D01*
X229935000Y-112361666D01*
X229968333Y-112228333D01*
X230001666Y-112161666D01*
X230068333Y-112095000D01*
X230168333Y-112061666D01*
X230235000Y-112061666D01*
X230335000Y-112095000D01*
X230368333Y-112128333D01*
X230635000Y-112128333D02*
X230668333Y-112095000D01*
X230735000Y-112061666D01*
X230901666Y-112061666D01*
X230968333Y-112095000D01*
X231001666Y-112128333D01*
X231035000Y-112195000D01*
X231035000Y-112261666D01*
X231001666Y-112361666D01*
X230601666Y-112761666D01*
X231035000Y-112761666D01*
X221928333Y-105785000D02*
X221895000Y-105818333D01*
X221795000Y-105851666D01*
X221728333Y-105851666D01*
X221628333Y-105818333D01*
X221561666Y-105751666D01*
X221528333Y-105685000D01*
X221495000Y-105551666D01*
X221495000Y-105451666D01*
X221528333Y-105318333D01*
X221561666Y-105251666D01*
X221628333Y-105185000D01*
X221728333Y-105151666D01*
X221795000Y-105151666D01*
X221895000Y-105185000D01*
X221928333Y-105218333D01*
X222528333Y-105385000D02*
X222528333Y-105851666D01*
X222361666Y-105118333D02*
X222195000Y-105618333D01*
X222628333Y-105618333D01*
X222108333Y-101515000D02*
X222075000Y-101548333D01*
X221975000Y-101581666D01*
X221908333Y-101581666D01*
X221808333Y-101548333D01*
X221741666Y-101481666D01*
X221708333Y-101415000D01*
X221675000Y-101281666D01*
X221675000Y-101181666D01*
X221708333Y-101048333D01*
X221741666Y-100981666D01*
X221808333Y-100915000D01*
X221908333Y-100881666D01*
X221975000Y-100881666D01*
X222075000Y-100915000D01*
X222108333Y-100948333D01*
X222775000Y-101581666D02*
X222375000Y-101581666D01*
X222575000Y-101581666D02*
X222575000Y-100881666D01*
X222508333Y-100981666D01*
X222441666Y-101048333D01*
X222375000Y-101081666D01*
X225368333Y-104568333D02*
X225301666Y-104535000D01*
X225235000Y-104468333D01*
X225135000Y-104368333D01*
X225068333Y-104335000D01*
X225001666Y-104335000D01*
X225035000Y-104501666D02*
X224968333Y-104468333D01*
X224901666Y-104401666D01*
X224868333Y-104268333D01*
X224868333Y-104035000D01*
X224901666Y-103901666D01*
X224968333Y-103835000D01*
X225035000Y-103801666D01*
X225168333Y-103801666D01*
X225235000Y-103835000D01*
X225301666Y-103901666D01*
X225335000Y-104035000D01*
X225335000Y-104268333D01*
X225301666Y-104401666D01*
X225235000Y-104468333D01*
X225168333Y-104501666D01*
X225035000Y-104501666D01*
X226001666Y-104501666D02*
X225601666Y-104501666D01*
X225801666Y-104501666D02*
X225801666Y-103801666D01*
X225735000Y-103901666D01*
X225668333Y-103968333D01*
X225601666Y-104001666D01*
X228648333Y-103751666D02*
X228648333Y-103051666D01*
X228815000Y-103051666D01*
X228915000Y-103085000D01*
X228981666Y-103151666D01*
X229015000Y-103218333D01*
X229048333Y-103351666D01*
X229048333Y-103451666D01*
X229015000Y-103585000D01*
X228981666Y-103651666D01*
X228915000Y-103718333D01*
X228815000Y-103751666D01*
X228648333Y-103751666D01*
X229715000Y-103751666D02*
X229315000Y-103751666D01*
X229515000Y-103751666D02*
X229515000Y-103051666D01*
X229448333Y-103151666D01*
X229381666Y-103218333D01*
X229315000Y-103251666D01*
X223871666Y-101631666D02*
X223871666Y-100931666D01*
X224271666Y-101631666D02*
X223971666Y-101231666D01*
X224271666Y-100931666D02*
X223871666Y-101331666D01*
X233908333Y-101421666D02*
X234241666Y-101421666D01*
X233841666Y-101621666D02*
X234075000Y-100921666D01*
X234308333Y-101621666D01*
%LPC*%
D12*
X233485000Y-108835000D03*
X233485000Y-111035000D03*
D13*
X223325000Y-111155000D03*
X221125000Y-111155000D03*
X227530000Y-111150000D03*
X225330000Y-111150000D03*
D12*
X221075000Y-108995000D03*
X221075000Y-106795000D03*
X223015000Y-108985000D03*
X223015000Y-106785000D03*
X233365000Y-104415000D03*
X233365000Y-106615000D03*
D14*
X236220000Y-110490000D03*
D15*
X236220000Y-107950000D03*
X236220000Y-105410000D03*
X236220000Y-102870000D03*
D14*
X218440000Y-102870000D03*
D15*
X218440000Y-105410000D03*
X218440000Y-107950000D03*
X218440000Y-110490000D03*
D16*
X229575000Y-111195000D03*
X231475000Y-111195000D03*
X221125000Y-104355000D03*
X223025000Y-104355000D03*
X223085000Y-102585000D03*
X221185000Y-102585000D03*
D17*
X225565000Y-105350000D03*
X225565000Y-106620000D03*
X225565000Y-107890000D03*
X225565000Y-109160000D03*
X230965000Y-109160000D03*
X230965000Y-107890000D03*
X230965000Y-106620000D03*
X230965000Y-105350000D03*
D18*
X226354180Y-101955000D03*
X231855820Y-101955000D03*
M02*
