G04 #@! TF.FileFunction,Legend,Bot*
%FSLAX46Y46*%
G04 Gerber Fmt 4.6, Leading zero omitted, Abs format (unit mm)*
G04 Created by KiCad (PCBNEW 0.201509051501+6156~29~ubuntu14.04.1-product) date Wed 20 Jan 2016 21:33:14 GMT*
%MOMM*%
G01*
G04 APERTURE LIST*
%ADD10C,0.100000*%
%ADD11C,0.150000*%
G04 APERTURE END LIST*
D10*
D11*
X230330000Y-109680000D02*
X230330000Y-109480000D01*
X230330000Y-103680000D02*
X230330000Y-103880000D01*
X224330000Y-103680000D02*
X224330000Y-103880000D01*
X224330000Y-109680000D02*
X224330000Y-109480000D01*
X224330000Y-107880000D02*
X224330000Y-105480000D01*
X230330000Y-107880000D02*
X230330000Y-105480000D01*
X230330000Y-109680000D02*
X224330000Y-109680000D01*
X224330000Y-103680000D02*
X230330000Y-103680000D01*
X229030000Y-106680000D02*
G75*
G03X229030000Y-106680000I-1700000J0D01*
G01*
X227663333Y-111084762D02*
X227520476Y-111132381D01*
X227282380Y-111132381D01*
X227187142Y-111084762D01*
X227139523Y-111037143D01*
X227091904Y-110941905D01*
X227091904Y-110846667D01*
X227139523Y-110751429D01*
X227187142Y-110703810D01*
X227282380Y-110656190D01*
X227472857Y-110608571D01*
X227568095Y-110560952D01*
X227615714Y-110513333D01*
X227663333Y-110418095D01*
X227663333Y-110322857D01*
X227615714Y-110227619D01*
X227568095Y-110180000D01*
X227472857Y-110132381D01*
X227234761Y-110132381D01*
X227091904Y-110180000D01*
X226758571Y-110132381D02*
X226520476Y-111132381D01*
X226329999Y-110418095D01*
X226139523Y-111132381D01*
X225901428Y-110132381D01*
X224996666Y-111132381D02*
X225568095Y-111132381D01*
X225282381Y-111132381D02*
X225282381Y-110132381D01*
X225377619Y-110275238D01*
X225472857Y-110370476D01*
X225568095Y-110418095D01*
M02*
