G04 #@! TF.FileFunction,Copper,L2,Bot,Signal*
%FSLAX46Y46*%
G04 Gerber Fmt 4.6, Leading zero omitted, Abs format (unit mm)*
G04 Created by KiCad (PCBNEW 0.201509051501+6156~29~ubuntu14.04.1-product) date Wed 20 Jan 2016 21:14:12 GMT*
%MOMM*%
G01*
G04 APERTURE LIST*
%ADD10C,0.100000*%
%ADD11R,2.750000X1.000000*%
%ADD12R,2.032000X1.727200*%
%ADD13O,2.032000X1.727200*%
%ADD14C,0.600000*%
%ADD15C,0.254000*%
%ADD16C,0.250000*%
%ADD17C,0.508000*%
G04 APERTURE END LIST*
D10*
D11*
X230205000Y-108680000D03*
X224455000Y-108680000D03*
X224455000Y-104680000D03*
X230205000Y-104680000D03*
D12*
X218440000Y-102870000D03*
D13*
X218440000Y-105410000D03*
X218440000Y-107950000D03*
X218440000Y-110490000D03*
D12*
X236220000Y-110490000D03*
D13*
X236220000Y-107950000D03*
X236220000Y-105410000D03*
X236220000Y-102870000D03*
D14*
X232825000Y-103695000D03*
X230415000Y-103475000D03*
X228230000Y-105600000D03*
X227435000Y-105155000D03*
D15*
X232815000Y-103705000D02*
X232825000Y-103695000D01*
X230645000Y-103705000D02*
X232815000Y-103705000D01*
X230415000Y-103475000D02*
X230645000Y-103705000D01*
D16*
X224455000Y-108680000D02*
X219170000Y-108680000D01*
X219170000Y-108680000D02*
X218440000Y-107950000D01*
X230205000Y-108680000D02*
X224455000Y-108680000D01*
D15*
X230205000Y-108680000D02*
X235360000Y-108680000D01*
X235360000Y-108680000D02*
X236065000Y-107975000D01*
X236065000Y-107975000D02*
X236220000Y-107950000D01*
X228230000Y-105600000D02*
X230220000Y-107590000D01*
X230220000Y-107590000D02*
X230220000Y-108400000D01*
X230220000Y-108400000D02*
X230205000Y-108680000D01*
D16*
X227435000Y-105155000D02*
X227435000Y-104705000D01*
X227425000Y-104695000D02*
X227425000Y-104680000D01*
X227435000Y-104705000D02*
X227425000Y-104695000D01*
X224455000Y-104680000D02*
X227425000Y-104680000D01*
X227425000Y-104680000D02*
X230205000Y-104680000D01*
D17*
X236220000Y-102870000D02*
X236220000Y-105520000D01*
D16*
X236220000Y-105520000D02*
X236260000Y-105560000D01*
X236260000Y-105560000D02*
X236220000Y-105410000D01*
D17*
X230205000Y-104680000D02*
X234060000Y-104680000D01*
X234060000Y-104680000D02*
X235840000Y-102900000D01*
D16*
X235840000Y-102900000D02*
X235900000Y-102900000D01*
X235900000Y-102900000D02*
X235920000Y-102880000D01*
X235920000Y-102880000D02*
X236220000Y-102870000D01*
X229860000Y-104680000D02*
X229940000Y-104760000D01*
X229940000Y-104760000D02*
X230205000Y-104680000D01*
D17*
X218440000Y-102870000D02*
X218440000Y-105450000D01*
D16*
X218440000Y-105450000D02*
X218530000Y-105540000D01*
X218530000Y-105540000D02*
X218440000Y-105410000D01*
D17*
X224455000Y-104680000D02*
X220480000Y-104680000D01*
X220480000Y-104680000D02*
X218750000Y-102950000D01*
D16*
X218750000Y-102950000D02*
X218440000Y-102870000D01*
D15*
G36*
X238050000Y-101894092D02*
X238050000Y-111465908D01*
X237195908Y-112320000D01*
X217464092Y-112320000D01*
X216610000Y-111465908D01*
X216610000Y-107950000D01*
X216756655Y-107950000D01*
X216870729Y-108523489D01*
X217195585Y-109009670D01*
X217510366Y-109220000D01*
X217195585Y-109430330D01*
X216870729Y-109916511D01*
X216756655Y-110490000D01*
X216870729Y-111063489D01*
X217195585Y-111549670D01*
X217681766Y-111874526D01*
X218255255Y-111988600D01*
X218624745Y-111988600D01*
X219198234Y-111874526D01*
X219684415Y-111549670D01*
X220009271Y-111063489D01*
X220123345Y-110490000D01*
X220009271Y-109916511D01*
X219690876Y-109440000D01*
X222492721Y-109440000D01*
X222615910Y-109631441D01*
X222828110Y-109776431D01*
X223080000Y-109827440D01*
X225830000Y-109827440D01*
X226065317Y-109783162D01*
X226281441Y-109644090D01*
X226420890Y-109440000D01*
X228242721Y-109440000D01*
X228365910Y-109631441D01*
X228578110Y-109776431D01*
X228830000Y-109827440D01*
X231580000Y-109827440D01*
X231815317Y-109783162D01*
X232031441Y-109644090D01*
X232169523Y-109442000D01*
X234593902Y-109442000D01*
X234556560Y-109626400D01*
X234556560Y-111353600D01*
X234600838Y-111588917D01*
X234739910Y-111805041D01*
X234952110Y-111950031D01*
X235204000Y-112001040D01*
X237236000Y-112001040D01*
X237471317Y-111956762D01*
X237687441Y-111817690D01*
X237832431Y-111605490D01*
X237883440Y-111353600D01*
X237883440Y-109626400D01*
X237839162Y-109391083D01*
X237700090Y-109174959D01*
X237487890Y-109029969D01*
X237446561Y-109021600D01*
X237464415Y-109009670D01*
X237789271Y-108523489D01*
X237903345Y-107950000D01*
X237789271Y-107376511D01*
X237464415Y-106890330D01*
X237154931Y-106683539D01*
X237570732Y-106312036D01*
X237824709Y-105784791D01*
X237827358Y-105769026D01*
X237706217Y-105537000D01*
X236347000Y-105537000D01*
X236347000Y-105557000D01*
X236093000Y-105557000D01*
X236093000Y-105537000D01*
X234733783Y-105537000D01*
X234612642Y-105769026D01*
X234615291Y-105784791D01*
X234869268Y-106312036D01*
X235285069Y-106683539D01*
X234975585Y-106890330D01*
X234650729Y-107376511D01*
X234543020Y-107918000D01*
X232165992Y-107918000D01*
X232044090Y-107728559D01*
X231831890Y-107583569D01*
X231580000Y-107532560D01*
X230970574Y-107532560D01*
X230923996Y-107298395D01*
X230758815Y-107051185D01*
X229522630Y-105815000D01*
X229919250Y-105815000D01*
X230078000Y-105656250D01*
X230078000Y-104807000D01*
X230332000Y-104807000D01*
X230332000Y-105656250D01*
X230490750Y-105815000D01*
X231706309Y-105815000D01*
X231939698Y-105718327D01*
X232118327Y-105539699D01*
X232215000Y-105306310D01*
X232215000Y-104965750D01*
X232056250Y-104807000D01*
X230332000Y-104807000D01*
X230078000Y-104807000D01*
X230058000Y-104807000D01*
X230058000Y-104553000D01*
X230078000Y-104553000D01*
X230078000Y-104533000D01*
X230332000Y-104533000D01*
X230332000Y-104553000D01*
X232056250Y-104553000D01*
X232142250Y-104467000D01*
X232274516Y-104467000D01*
X232294673Y-104487192D01*
X232638201Y-104629838D01*
X233010167Y-104630162D01*
X233353943Y-104488117D01*
X233617192Y-104225327D01*
X233759838Y-103881799D01*
X233760162Y-103509833D01*
X233644136Y-103229026D01*
X234612642Y-103229026D01*
X234615291Y-103244791D01*
X234869268Y-103772036D01*
X235281108Y-104140000D01*
X234869268Y-104507964D01*
X234615291Y-105035209D01*
X234612642Y-105050974D01*
X234733783Y-105283000D01*
X236093000Y-105283000D01*
X236093000Y-102997000D01*
X236347000Y-102997000D01*
X236347000Y-105283000D01*
X237706217Y-105283000D01*
X237827358Y-105050974D01*
X237824709Y-105035209D01*
X237570732Y-104507964D01*
X237158892Y-104140000D01*
X237570732Y-103772036D01*
X237824709Y-103244791D01*
X237827358Y-103229026D01*
X237706217Y-102997000D01*
X236347000Y-102997000D01*
X236093000Y-102997000D01*
X234733783Y-102997000D01*
X234612642Y-103229026D01*
X233644136Y-103229026D01*
X233618117Y-103166057D01*
X233355327Y-102902808D01*
X233011799Y-102760162D01*
X232639833Y-102759838D01*
X232296057Y-102901883D01*
X232254868Y-102943000D01*
X231205065Y-102943000D01*
X230945327Y-102682808D01*
X230601799Y-102540162D01*
X230229833Y-102539838D01*
X229886057Y-102681883D01*
X229622808Y-102944673D01*
X229480162Y-103288201D01*
X229479938Y-103545000D01*
X228703691Y-103545000D01*
X228470302Y-103641673D01*
X228291673Y-103820301D01*
X228195000Y-104053690D01*
X228195000Y-104394250D01*
X228353748Y-104552998D01*
X228195000Y-104552998D01*
X228195000Y-104664969D01*
X228044833Y-104664838D01*
X227701057Y-104806883D01*
X227437808Y-105069673D01*
X227295162Y-105413201D01*
X227294838Y-105785167D01*
X227436883Y-106128943D01*
X227699673Y-106392192D01*
X228043201Y-106534838D01*
X228087246Y-106534876D01*
X229084930Y-107532560D01*
X228830000Y-107532560D01*
X228594683Y-107576838D01*
X228378559Y-107715910D01*
X228239110Y-107920000D01*
X226417279Y-107920000D01*
X226294090Y-107728559D01*
X226081890Y-107583569D01*
X225830000Y-107532560D01*
X223080000Y-107532560D01*
X222844683Y-107576838D01*
X222628559Y-107715910D01*
X222489110Y-107920000D01*
X220117378Y-107920000D01*
X220009271Y-107376511D01*
X219684415Y-106890330D01*
X219374931Y-106683539D01*
X219790732Y-106312036D01*
X220044709Y-105784791D01*
X220047358Y-105769026D01*
X219926217Y-105537000D01*
X218567000Y-105537000D01*
X218567000Y-105557000D01*
X218313000Y-105557000D01*
X218313000Y-105537000D01*
X216953783Y-105537000D01*
X216832642Y-105769026D01*
X216835291Y-105784791D01*
X217089268Y-106312036D01*
X217505069Y-106683539D01*
X217195585Y-106890330D01*
X216870729Y-107376511D01*
X216756655Y-107950000D01*
X216610000Y-107950000D01*
X216610000Y-103155750D01*
X216789000Y-103155750D01*
X216789000Y-103859910D01*
X216885673Y-104093299D01*
X217064302Y-104271927D01*
X217261861Y-104353759D01*
X217089268Y-104507964D01*
X216835291Y-105035209D01*
X216832642Y-105050974D01*
X216953783Y-105283000D01*
X218313000Y-105283000D01*
X218313000Y-102997000D01*
X218567000Y-102997000D01*
X218567000Y-105283000D01*
X219926217Y-105283000D01*
X220047358Y-105050974D01*
X220044709Y-105035209D01*
X220011251Y-104965750D01*
X222445000Y-104965750D01*
X222445000Y-105306310D01*
X222541673Y-105539699D01*
X222720302Y-105718327D01*
X222953691Y-105815000D01*
X224169250Y-105815000D01*
X224328000Y-105656250D01*
X224328000Y-104807000D01*
X224582000Y-104807000D01*
X224582000Y-105656250D01*
X224740750Y-105815000D01*
X225956309Y-105815000D01*
X226189698Y-105718327D01*
X226368327Y-105539699D01*
X226465000Y-105306310D01*
X226465000Y-104965750D01*
X226306250Y-104807000D01*
X224582000Y-104807000D01*
X224328000Y-104807000D01*
X222603750Y-104807000D01*
X222445000Y-104965750D01*
X220011251Y-104965750D01*
X219790732Y-104507964D01*
X219618139Y-104353759D01*
X219815698Y-104271927D01*
X219994327Y-104093299D01*
X220010733Y-104053690D01*
X222445000Y-104053690D01*
X222445000Y-104394250D01*
X222603750Y-104553000D01*
X224328000Y-104553000D01*
X224328000Y-103703750D01*
X224582000Y-103703750D01*
X224582000Y-104553000D01*
X226306250Y-104553000D01*
X226465000Y-104394250D01*
X226465000Y-104053690D01*
X226368327Y-103820301D01*
X226189698Y-103641673D01*
X225956309Y-103545000D01*
X224740750Y-103545000D01*
X224582000Y-103703750D01*
X224328000Y-103703750D01*
X224169250Y-103545000D01*
X222953691Y-103545000D01*
X222720302Y-103641673D01*
X222541673Y-103820301D01*
X222445000Y-104053690D01*
X220010733Y-104053690D01*
X220091000Y-103859910D01*
X220091000Y-103155750D01*
X219932250Y-102997000D01*
X218567000Y-102997000D01*
X218313000Y-102997000D01*
X216947750Y-102997000D01*
X216789000Y-103155750D01*
X216610000Y-103155750D01*
X216610000Y-101894092D01*
X216624002Y-101880090D01*
X216789000Y-101880090D01*
X216789000Y-102584250D01*
X216947750Y-102743000D01*
X218313000Y-102743000D01*
X218313000Y-101530150D01*
X218567000Y-101530150D01*
X218567000Y-102743000D01*
X219932250Y-102743000D01*
X220091000Y-102584250D01*
X220091000Y-102510974D01*
X234612642Y-102510974D01*
X234733783Y-102743000D01*
X236093000Y-102743000D01*
X236093000Y-101529076D01*
X236347000Y-101529076D01*
X236347000Y-102743000D01*
X237706217Y-102743000D01*
X237827358Y-102510974D01*
X237824709Y-102495209D01*
X237570732Y-101967964D01*
X237134320Y-101578046D01*
X236581913Y-101384816D01*
X236347000Y-101529076D01*
X236093000Y-101529076D01*
X235858087Y-101384816D01*
X235305680Y-101578046D01*
X234869268Y-101967964D01*
X234615291Y-102495209D01*
X234612642Y-102510974D01*
X220091000Y-102510974D01*
X220091000Y-101880090D01*
X219994327Y-101646701D01*
X219815698Y-101468073D01*
X219582309Y-101371400D01*
X218725750Y-101371400D01*
X218567000Y-101530150D01*
X218313000Y-101530150D01*
X218154250Y-101371400D01*
X217297691Y-101371400D01*
X217064302Y-101468073D01*
X216885673Y-101646701D01*
X216789000Y-101880090D01*
X216624002Y-101880090D01*
X217464092Y-101040000D01*
X237195908Y-101040000D01*
X238050000Y-101894092D01*
X238050000Y-101894092D01*
G37*
X238050000Y-101894092D02*
X238050000Y-111465908D01*
X237195908Y-112320000D01*
X217464092Y-112320000D01*
X216610000Y-111465908D01*
X216610000Y-107950000D01*
X216756655Y-107950000D01*
X216870729Y-108523489D01*
X217195585Y-109009670D01*
X217510366Y-109220000D01*
X217195585Y-109430330D01*
X216870729Y-109916511D01*
X216756655Y-110490000D01*
X216870729Y-111063489D01*
X217195585Y-111549670D01*
X217681766Y-111874526D01*
X218255255Y-111988600D01*
X218624745Y-111988600D01*
X219198234Y-111874526D01*
X219684415Y-111549670D01*
X220009271Y-111063489D01*
X220123345Y-110490000D01*
X220009271Y-109916511D01*
X219690876Y-109440000D01*
X222492721Y-109440000D01*
X222615910Y-109631441D01*
X222828110Y-109776431D01*
X223080000Y-109827440D01*
X225830000Y-109827440D01*
X226065317Y-109783162D01*
X226281441Y-109644090D01*
X226420890Y-109440000D01*
X228242721Y-109440000D01*
X228365910Y-109631441D01*
X228578110Y-109776431D01*
X228830000Y-109827440D01*
X231580000Y-109827440D01*
X231815317Y-109783162D01*
X232031441Y-109644090D01*
X232169523Y-109442000D01*
X234593902Y-109442000D01*
X234556560Y-109626400D01*
X234556560Y-111353600D01*
X234600838Y-111588917D01*
X234739910Y-111805041D01*
X234952110Y-111950031D01*
X235204000Y-112001040D01*
X237236000Y-112001040D01*
X237471317Y-111956762D01*
X237687441Y-111817690D01*
X237832431Y-111605490D01*
X237883440Y-111353600D01*
X237883440Y-109626400D01*
X237839162Y-109391083D01*
X237700090Y-109174959D01*
X237487890Y-109029969D01*
X237446561Y-109021600D01*
X237464415Y-109009670D01*
X237789271Y-108523489D01*
X237903345Y-107950000D01*
X237789271Y-107376511D01*
X237464415Y-106890330D01*
X237154931Y-106683539D01*
X237570732Y-106312036D01*
X237824709Y-105784791D01*
X237827358Y-105769026D01*
X237706217Y-105537000D01*
X236347000Y-105537000D01*
X236347000Y-105557000D01*
X236093000Y-105557000D01*
X236093000Y-105537000D01*
X234733783Y-105537000D01*
X234612642Y-105769026D01*
X234615291Y-105784791D01*
X234869268Y-106312036D01*
X235285069Y-106683539D01*
X234975585Y-106890330D01*
X234650729Y-107376511D01*
X234543020Y-107918000D01*
X232165992Y-107918000D01*
X232044090Y-107728559D01*
X231831890Y-107583569D01*
X231580000Y-107532560D01*
X230970574Y-107532560D01*
X230923996Y-107298395D01*
X230758815Y-107051185D01*
X229522630Y-105815000D01*
X229919250Y-105815000D01*
X230078000Y-105656250D01*
X230078000Y-104807000D01*
X230332000Y-104807000D01*
X230332000Y-105656250D01*
X230490750Y-105815000D01*
X231706309Y-105815000D01*
X231939698Y-105718327D01*
X232118327Y-105539699D01*
X232215000Y-105306310D01*
X232215000Y-104965750D01*
X232056250Y-104807000D01*
X230332000Y-104807000D01*
X230078000Y-104807000D01*
X230058000Y-104807000D01*
X230058000Y-104553000D01*
X230078000Y-104553000D01*
X230078000Y-104533000D01*
X230332000Y-104533000D01*
X230332000Y-104553000D01*
X232056250Y-104553000D01*
X232142250Y-104467000D01*
X232274516Y-104467000D01*
X232294673Y-104487192D01*
X232638201Y-104629838D01*
X233010167Y-104630162D01*
X233353943Y-104488117D01*
X233617192Y-104225327D01*
X233759838Y-103881799D01*
X233760162Y-103509833D01*
X233644136Y-103229026D01*
X234612642Y-103229026D01*
X234615291Y-103244791D01*
X234869268Y-103772036D01*
X235281108Y-104140000D01*
X234869268Y-104507964D01*
X234615291Y-105035209D01*
X234612642Y-105050974D01*
X234733783Y-105283000D01*
X236093000Y-105283000D01*
X236093000Y-102997000D01*
X236347000Y-102997000D01*
X236347000Y-105283000D01*
X237706217Y-105283000D01*
X237827358Y-105050974D01*
X237824709Y-105035209D01*
X237570732Y-104507964D01*
X237158892Y-104140000D01*
X237570732Y-103772036D01*
X237824709Y-103244791D01*
X237827358Y-103229026D01*
X237706217Y-102997000D01*
X236347000Y-102997000D01*
X236093000Y-102997000D01*
X234733783Y-102997000D01*
X234612642Y-103229026D01*
X233644136Y-103229026D01*
X233618117Y-103166057D01*
X233355327Y-102902808D01*
X233011799Y-102760162D01*
X232639833Y-102759838D01*
X232296057Y-102901883D01*
X232254868Y-102943000D01*
X231205065Y-102943000D01*
X230945327Y-102682808D01*
X230601799Y-102540162D01*
X230229833Y-102539838D01*
X229886057Y-102681883D01*
X229622808Y-102944673D01*
X229480162Y-103288201D01*
X229479938Y-103545000D01*
X228703691Y-103545000D01*
X228470302Y-103641673D01*
X228291673Y-103820301D01*
X228195000Y-104053690D01*
X228195000Y-104394250D01*
X228353748Y-104552998D01*
X228195000Y-104552998D01*
X228195000Y-104664969D01*
X228044833Y-104664838D01*
X227701057Y-104806883D01*
X227437808Y-105069673D01*
X227295162Y-105413201D01*
X227294838Y-105785167D01*
X227436883Y-106128943D01*
X227699673Y-106392192D01*
X228043201Y-106534838D01*
X228087246Y-106534876D01*
X229084930Y-107532560D01*
X228830000Y-107532560D01*
X228594683Y-107576838D01*
X228378559Y-107715910D01*
X228239110Y-107920000D01*
X226417279Y-107920000D01*
X226294090Y-107728559D01*
X226081890Y-107583569D01*
X225830000Y-107532560D01*
X223080000Y-107532560D01*
X222844683Y-107576838D01*
X222628559Y-107715910D01*
X222489110Y-107920000D01*
X220117378Y-107920000D01*
X220009271Y-107376511D01*
X219684415Y-106890330D01*
X219374931Y-106683539D01*
X219790732Y-106312036D01*
X220044709Y-105784791D01*
X220047358Y-105769026D01*
X219926217Y-105537000D01*
X218567000Y-105537000D01*
X218567000Y-105557000D01*
X218313000Y-105557000D01*
X218313000Y-105537000D01*
X216953783Y-105537000D01*
X216832642Y-105769026D01*
X216835291Y-105784791D01*
X217089268Y-106312036D01*
X217505069Y-106683539D01*
X217195585Y-106890330D01*
X216870729Y-107376511D01*
X216756655Y-107950000D01*
X216610000Y-107950000D01*
X216610000Y-103155750D01*
X216789000Y-103155750D01*
X216789000Y-103859910D01*
X216885673Y-104093299D01*
X217064302Y-104271927D01*
X217261861Y-104353759D01*
X217089268Y-104507964D01*
X216835291Y-105035209D01*
X216832642Y-105050974D01*
X216953783Y-105283000D01*
X218313000Y-105283000D01*
X218313000Y-102997000D01*
X218567000Y-102997000D01*
X218567000Y-105283000D01*
X219926217Y-105283000D01*
X220047358Y-105050974D01*
X220044709Y-105035209D01*
X220011251Y-104965750D01*
X222445000Y-104965750D01*
X222445000Y-105306310D01*
X222541673Y-105539699D01*
X222720302Y-105718327D01*
X222953691Y-105815000D01*
X224169250Y-105815000D01*
X224328000Y-105656250D01*
X224328000Y-104807000D01*
X224582000Y-104807000D01*
X224582000Y-105656250D01*
X224740750Y-105815000D01*
X225956309Y-105815000D01*
X226189698Y-105718327D01*
X226368327Y-105539699D01*
X226465000Y-105306310D01*
X226465000Y-104965750D01*
X226306250Y-104807000D01*
X224582000Y-104807000D01*
X224328000Y-104807000D01*
X222603750Y-104807000D01*
X222445000Y-104965750D01*
X220011251Y-104965750D01*
X219790732Y-104507964D01*
X219618139Y-104353759D01*
X219815698Y-104271927D01*
X219994327Y-104093299D01*
X220010733Y-104053690D01*
X222445000Y-104053690D01*
X222445000Y-104394250D01*
X222603750Y-104553000D01*
X224328000Y-104553000D01*
X224328000Y-103703750D01*
X224582000Y-103703750D01*
X224582000Y-104553000D01*
X226306250Y-104553000D01*
X226465000Y-104394250D01*
X226465000Y-104053690D01*
X226368327Y-103820301D01*
X226189698Y-103641673D01*
X225956309Y-103545000D01*
X224740750Y-103545000D01*
X224582000Y-103703750D01*
X224328000Y-103703750D01*
X224169250Y-103545000D01*
X222953691Y-103545000D01*
X222720302Y-103641673D01*
X222541673Y-103820301D01*
X222445000Y-104053690D01*
X220010733Y-104053690D01*
X220091000Y-103859910D01*
X220091000Y-103155750D01*
X219932250Y-102997000D01*
X218567000Y-102997000D01*
X218313000Y-102997000D01*
X216947750Y-102997000D01*
X216789000Y-103155750D01*
X216610000Y-103155750D01*
X216610000Y-101894092D01*
X216624002Y-101880090D01*
X216789000Y-101880090D01*
X216789000Y-102584250D01*
X216947750Y-102743000D01*
X218313000Y-102743000D01*
X218313000Y-101530150D01*
X218567000Y-101530150D01*
X218567000Y-102743000D01*
X219932250Y-102743000D01*
X220091000Y-102584250D01*
X220091000Y-102510974D01*
X234612642Y-102510974D01*
X234733783Y-102743000D01*
X236093000Y-102743000D01*
X236093000Y-101529076D01*
X236347000Y-101529076D01*
X236347000Y-102743000D01*
X237706217Y-102743000D01*
X237827358Y-102510974D01*
X237824709Y-102495209D01*
X237570732Y-101967964D01*
X237134320Y-101578046D01*
X236581913Y-101384816D01*
X236347000Y-101529076D01*
X236093000Y-101529076D01*
X235858087Y-101384816D01*
X235305680Y-101578046D01*
X234869268Y-101967964D01*
X234615291Y-102495209D01*
X234612642Y-102510974D01*
X220091000Y-102510974D01*
X220091000Y-101880090D01*
X219994327Y-101646701D01*
X219815698Y-101468073D01*
X219582309Y-101371400D01*
X218725750Y-101371400D01*
X218567000Y-101530150D01*
X218313000Y-101530150D01*
X218154250Y-101371400D01*
X217297691Y-101371400D01*
X217064302Y-101468073D01*
X216885673Y-101646701D01*
X216789000Y-101880090D01*
X216624002Y-101880090D01*
X217464092Y-101040000D01*
X237195908Y-101040000D01*
X238050000Y-101894092D01*
M02*
