M48
;DRILL file {KiCad 4.1.0-alpha+201606291451+6956~45~ubuntu14.04.1-product} date Thu Jun 30 17:16:50 2016
;FORMAT={-:-/ absolute / metric / decimal}
FMAT,2
METRIC,TZ
T1C0.500
T2C1.016
%
G90
G05
M71
T1
X220.735Y-112.255
X223.79Y-107.295
X224.225Y-104.925
X226.796Y-108.879
X227.055Y-105.325
X227.055Y-107.425
X228.106Y-107.328
X228.228Y-109.356
X228.295Y-105.355
X228.465Y-104.005
X229.529Y-108.779
X232.705Y-112.425
X232.724Y-107.326
T2
X218.44Y-102.87
X218.44Y-105.41
X218.44Y-107.95
X218.44Y-110.49
X236.22Y-102.87
X236.22Y-105.41
X236.22Y-107.95
X236.22Y-110.49
T0
M30
