G04 #@! TF.FileFunction,Copper,L2,Bot,Signal*
%FSLAX46Y46*%
G04 Gerber Fmt 4.6, Leading zero omitted, Abs format (unit mm)*
G04 Created by KiCad (PCBNEW 4.1.0-alpha+201606061201+6885~45~ubuntu14.04.1-product) date Fri Jun 10 14:20:30 2016*
%MOMM*%
%LPD*%
G01*
G04 APERTURE LIST*
%ADD10C,0.100000*%
%ADD11R,2.032000X1.727200*%
%ADD12O,2.032000X1.727200*%
%ADD13R,2.100000X1.400000*%
%ADD14R,1.200000X0.900000*%
%ADD15R,1.000000X1.000000*%
%ADD16C,0.700000*%
%ADD17C,0.250000*%
%ADD18C,0.200000*%
%ADD19C,0.254000*%
G04 APERTURE END LIST*
D10*
D11*
X236220000Y-110490000D03*
D12*
X236220000Y-107950000D03*
X236220000Y-105410000D03*
X236220000Y-102870000D03*
D11*
X218440000Y-102870000D03*
D12*
X218440000Y-105410000D03*
X218440000Y-107950000D03*
X218440000Y-110490000D03*
D13*
X222625000Y-104595000D03*
X231725000Y-109095000D03*
X231725000Y-104595000D03*
X222625000Y-109095000D03*
D14*
X229365000Y-111605000D03*
X231565000Y-111605000D03*
X224535000Y-111585000D03*
X222335000Y-111585000D03*
D15*
X225785000Y-101915000D03*
X228485000Y-101915000D03*
X227135000Y-101915000D03*
D16*
X226796251Y-108879140D03*
X223789989Y-107294991D03*
X224345000Y-103495000D03*
X228228165Y-109356445D03*
X229528749Y-108778898D03*
X232723938Y-107326430D03*
X228106428Y-107328182D03*
X227055000Y-105325000D03*
X228295000Y-105355011D03*
X228465000Y-104005000D03*
X227055000Y-107425000D03*
X224225002Y-104925000D03*
X232705000Y-112425000D03*
X220735000Y-112255000D03*
D17*
X226301277Y-108879140D02*
X226796251Y-108879140D01*
X223789989Y-107294991D02*
X225374138Y-108879140D01*
X225374138Y-108879140D02*
X226301277Y-108879140D01*
X224345000Y-103495000D02*
X225445000Y-102395000D01*
X225445000Y-102395000D02*
X225445000Y-102035000D01*
X225445000Y-102035000D02*
X225785000Y-101915000D01*
X231725000Y-109095000D02*
X234965000Y-109095000D01*
X234965000Y-109095000D02*
X236065000Y-107995000D01*
X236065000Y-107995000D02*
X236065000Y-107935000D01*
X236065000Y-107935000D02*
X236220000Y-107950000D01*
X222625000Y-109095000D02*
X219645000Y-109095000D01*
X219645000Y-109095000D02*
X218495000Y-107945000D01*
X218495000Y-107945000D02*
X218440000Y-107950000D01*
X232723938Y-107326430D02*
X230981217Y-107326430D01*
X228106428Y-107328182D02*
X228106428Y-109234708D01*
X228106428Y-109234708D02*
X228228165Y-109356445D01*
X230981217Y-107326430D02*
X229878748Y-108428899D01*
X229878748Y-108428899D02*
X229528749Y-108778898D01*
X236220000Y-105410000D02*
X236220000Y-104296400D01*
X236220000Y-104296400D02*
X236220000Y-102870000D01*
X229375000Y-110735000D02*
X228903166Y-110263166D01*
X228739998Y-108869276D02*
X228739998Y-108500998D01*
X229185000Y-108055996D02*
X229185000Y-104595000D01*
X228739998Y-108500998D02*
X229185000Y-108055996D01*
X229375000Y-111435000D02*
X229375000Y-110735000D01*
X228903166Y-110263166D02*
X228903166Y-109032444D01*
X228903166Y-109032444D02*
X228739998Y-108869276D01*
X229099999Y-104680001D02*
X229185000Y-104595000D01*
X227420001Y-104680001D02*
X229099999Y-104680001D01*
X227335000Y-104595000D02*
X227420001Y-104680001D01*
X224535000Y-111585000D02*
X229255000Y-111585000D01*
X229255000Y-111585000D02*
X229375000Y-111465000D01*
X229375000Y-111465000D02*
X229375000Y-111435000D01*
X227055000Y-105325000D02*
X227055000Y-104875000D01*
X227055000Y-104875000D02*
X227335000Y-104595000D01*
X229185000Y-104595000D02*
X231765000Y-104595000D01*
X231765000Y-104595000D02*
X231835000Y-104665000D01*
X231835000Y-104665000D02*
X231835000Y-104685000D01*
X231835000Y-104685000D02*
X231725000Y-104595000D01*
X222385000Y-104485000D02*
X222625000Y-104595000D01*
X218440000Y-102870000D02*
X218440000Y-105380000D01*
X218440000Y-105380000D02*
X218525000Y-105465000D01*
X218525000Y-105465000D02*
X218440000Y-105410000D01*
X227055000Y-105325000D02*
X227195000Y-105465000D01*
X227195000Y-105465000D02*
X227195000Y-105665000D01*
D10*
X227135000Y-101915000D02*
X228445000Y-101915000D01*
X228445000Y-101915000D02*
X228465000Y-101935000D01*
X228465000Y-101935000D02*
X228485000Y-101915000D01*
D17*
X228465000Y-104005000D02*
X228465000Y-101935000D01*
X228465000Y-101935000D02*
X228485000Y-101915000D01*
X228295000Y-105849985D02*
X228295000Y-105355011D01*
X227055000Y-107425000D02*
X228295000Y-106185000D01*
X228295000Y-106185000D02*
X228295000Y-105849985D01*
D18*
X228445000Y-101915000D02*
X228465000Y-101895000D01*
X228465000Y-101895000D02*
X228485000Y-101915000D01*
D17*
X224225002Y-104925000D02*
X224615000Y-104925000D01*
X224615000Y-104925000D02*
X225465000Y-104075000D01*
X227135000Y-102665000D02*
X225725000Y-104075000D01*
X225725000Y-104075000D02*
X225465000Y-104075000D01*
X227135000Y-101915000D02*
X227135000Y-102665000D01*
X231565000Y-111605000D02*
X231885000Y-111605000D01*
X231885000Y-111605000D02*
X232705000Y-112425000D01*
X231575000Y-111435000D02*
X232005000Y-111435000D01*
X221355000Y-111635000D02*
X222325000Y-111635000D01*
X220735000Y-112255000D02*
X221355000Y-111635000D01*
X222325000Y-111635000D02*
X222335000Y-111585000D01*
D19*
G36*
X224686843Y-101167235D02*
X224637560Y-101415000D01*
X224637560Y-102127638D01*
X224255276Y-102509922D01*
X224149931Y-102509830D01*
X223787771Y-102659471D01*
X223510445Y-102936314D01*
X223376039Y-103260000D01*
X222910750Y-103260000D01*
X222752000Y-103418750D01*
X222752000Y-104468000D01*
X222772000Y-104468000D01*
X222772000Y-104722000D01*
X222752000Y-104722000D01*
X222752000Y-105771250D01*
X222910750Y-105930000D01*
X223801310Y-105930000D01*
X223939221Y-105872875D01*
X224028214Y-105909828D01*
X224420071Y-105910170D01*
X224782231Y-105760529D01*
X224936099Y-105606929D01*
X225152401Y-105462401D01*
X225793410Y-104821392D01*
X226015839Y-104777148D01*
X226262401Y-104612401D01*
X227672401Y-103202401D01*
X227705000Y-103153613D01*
X227705000Y-103371889D01*
X227630445Y-103446314D01*
X227480172Y-103808212D01*
X227479830Y-104200069D01*
X227629471Y-104562229D01*
X227662153Y-104594968D01*
X227460445Y-104796325D01*
X227310172Y-105158223D01*
X227309830Y-105550080D01*
X227459471Y-105912240D01*
X227476200Y-105928998D01*
X226965276Y-106439922D01*
X226859931Y-106439830D01*
X226497771Y-106589471D01*
X226220445Y-106866314D01*
X226070172Y-107228212D01*
X226069830Y-107620069D01*
X226219471Y-107982229D01*
X226268562Y-108031405D01*
X226239022Y-108043611D01*
X226163361Y-108119140D01*
X225688940Y-108119140D01*
X224775067Y-107205267D01*
X224775159Y-107099922D01*
X224625518Y-106737762D01*
X224348675Y-106460436D01*
X223986777Y-106310163D01*
X223594920Y-106309821D01*
X223232760Y-106459462D01*
X222955434Y-106736305D01*
X222805161Y-107098203D01*
X222804819Y-107490060D01*
X222911216Y-107747560D01*
X221575000Y-107747560D01*
X221327235Y-107796843D01*
X221117191Y-107937191D01*
X220976843Y-108147235D01*
X220939495Y-108335000D01*
X220046764Y-108335000D01*
X220123345Y-107950000D01*
X220009271Y-107376511D01*
X219684415Y-106890330D01*
X219374931Y-106683539D01*
X219790732Y-106312036D01*
X220044709Y-105784791D01*
X220047358Y-105769026D01*
X219926217Y-105537000D01*
X218567000Y-105537000D01*
X218567000Y-105557000D01*
X218313000Y-105557000D01*
X218313000Y-105537000D01*
X216953783Y-105537000D01*
X216832642Y-105769026D01*
X216835291Y-105784791D01*
X217089268Y-106312036D01*
X217505069Y-106683539D01*
X217195585Y-106890330D01*
X216870729Y-107376511D01*
X216756655Y-107950000D01*
X216870729Y-108523489D01*
X217195585Y-109009670D01*
X217510366Y-109220000D01*
X217195585Y-109430330D01*
X216870729Y-109916511D01*
X216756655Y-110490000D01*
X216870729Y-111063489D01*
X217195585Y-111549670D01*
X217681766Y-111874526D01*
X218255255Y-111988600D01*
X218624745Y-111988600D01*
X219198234Y-111874526D01*
X219684415Y-111549670D01*
X220009271Y-111063489D01*
X220123345Y-110490000D01*
X220009271Y-109916511D01*
X219968171Y-109855000D01*
X220939495Y-109855000D01*
X220976843Y-110042765D01*
X221117191Y-110252809D01*
X221327235Y-110393157D01*
X221575000Y-110442440D01*
X223675000Y-110442440D01*
X223922765Y-110393157D01*
X224132809Y-110252809D01*
X224273157Y-110042765D01*
X224322440Y-109795000D01*
X224322440Y-108902244D01*
X224836737Y-109416541D01*
X225083299Y-109581288D01*
X225374138Y-109639140D01*
X226163140Y-109639140D01*
X226237565Y-109713695D01*
X226599463Y-109863968D01*
X226991320Y-109864310D01*
X227316690Y-109729870D01*
X227392636Y-109913674D01*
X227669479Y-110191000D01*
X228031377Y-110341273D01*
X228423234Y-110341615D01*
X228785394Y-110191974D01*
X229062720Y-109915131D01*
X229155939Y-109690635D01*
X229331961Y-109763726D01*
X229723818Y-109764068D01*
X230027560Y-109638565D01*
X230027560Y-109795000D01*
X230076843Y-110042765D01*
X230217191Y-110252809D01*
X230427235Y-110393157D01*
X230675000Y-110442440D01*
X232775000Y-110442440D01*
X233022765Y-110393157D01*
X233232809Y-110252809D01*
X233373157Y-110042765D01*
X233410505Y-109855000D01*
X234556560Y-109855000D01*
X234556560Y-111353600D01*
X234605843Y-111601365D01*
X234746191Y-111811409D01*
X234956235Y-111951757D01*
X235204000Y-112001040D01*
X237236000Y-112001040D01*
X237483765Y-111951757D01*
X237693809Y-111811409D01*
X237834157Y-111601365D01*
X237883440Y-111353600D01*
X237883440Y-109626400D01*
X237834157Y-109378635D01*
X237693809Y-109168591D01*
X237483765Y-109028243D01*
X237447434Y-109021016D01*
X237464415Y-109009670D01*
X237789271Y-108523489D01*
X237903345Y-107950000D01*
X237789271Y-107376511D01*
X237464415Y-106890330D01*
X237154931Y-106683539D01*
X237570732Y-106312036D01*
X237824709Y-105784791D01*
X237827358Y-105769026D01*
X237706217Y-105537000D01*
X236347000Y-105537000D01*
X236347000Y-105557000D01*
X236093000Y-105557000D01*
X236093000Y-105537000D01*
X234733783Y-105537000D01*
X234612642Y-105769026D01*
X234615291Y-105784791D01*
X234869268Y-106312036D01*
X235285069Y-106683539D01*
X234975585Y-106890330D01*
X234650729Y-107376511D01*
X234536655Y-107950000D01*
X234613236Y-108335000D01*
X233410505Y-108335000D01*
X233373157Y-108147235D01*
X233342251Y-108100981D01*
X233558493Y-107885116D01*
X233708766Y-107523218D01*
X233709108Y-107131361D01*
X233559467Y-106769201D01*
X233282624Y-106491875D01*
X232920726Y-106341602D01*
X232528869Y-106341260D01*
X232166709Y-106490901D01*
X232091048Y-106566430D01*
X230981217Y-106566430D01*
X230690378Y-106624282D01*
X230443816Y-106789029D01*
X229439025Y-107793820D01*
X229333680Y-107793728D01*
X228971520Y-107943369D01*
X228866428Y-108048278D01*
X228866428Y-107961293D01*
X228940983Y-107886868D01*
X229091256Y-107524970D01*
X229091598Y-107133113D01*
X228941957Y-106770953D01*
X228856895Y-106685743D01*
X228997148Y-106475839D01*
X229055000Y-106185000D01*
X229055000Y-105988122D01*
X229129555Y-105913697D01*
X229279828Y-105551799D01*
X229280170Y-105159942D01*
X229164811Y-104880750D01*
X230040000Y-104880750D01*
X230040000Y-105421309D01*
X230136673Y-105654698D01*
X230315301Y-105833327D01*
X230548690Y-105930000D01*
X231439250Y-105930000D01*
X231598000Y-105771250D01*
X231598000Y-104722000D01*
X231852000Y-104722000D01*
X231852000Y-105771250D01*
X232010750Y-105930000D01*
X232901310Y-105930000D01*
X233134699Y-105833327D01*
X233313327Y-105654698D01*
X233410000Y-105421309D01*
X233410000Y-104880750D01*
X233251250Y-104722000D01*
X231852000Y-104722000D01*
X231598000Y-104722000D01*
X230198750Y-104722000D01*
X230040000Y-104880750D01*
X229164811Y-104880750D01*
X229130529Y-104797782D01*
X229097847Y-104765043D01*
X229299555Y-104563686D01*
X229449828Y-104201788D01*
X229450170Y-103809931D01*
X229433131Y-103768691D01*
X230040000Y-103768691D01*
X230040000Y-104309250D01*
X230198750Y-104468000D01*
X231598000Y-104468000D01*
X231598000Y-103418750D01*
X231852000Y-103418750D01*
X231852000Y-104468000D01*
X233251250Y-104468000D01*
X233410000Y-104309250D01*
X233410000Y-103768691D01*
X233313327Y-103535302D01*
X233134699Y-103356673D01*
X232901310Y-103260000D01*
X232010750Y-103260000D01*
X231852000Y-103418750D01*
X231598000Y-103418750D01*
X231439250Y-103260000D01*
X230548690Y-103260000D01*
X230315301Y-103356673D01*
X230136673Y-103535302D01*
X230040000Y-103768691D01*
X229433131Y-103768691D01*
X229300529Y-103447771D01*
X229225000Y-103372110D01*
X229225000Y-103229026D01*
X234612642Y-103229026D01*
X234615291Y-103244791D01*
X234869268Y-103772036D01*
X235281108Y-104140000D01*
X234869268Y-104507964D01*
X234615291Y-105035209D01*
X234612642Y-105050974D01*
X234733783Y-105283000D01*
X236093000Y-105283000D01*
X236093000Y-102997000D01*
X236347000Y-102997000D01*
X236347000Y-105283000D01*
X237706217Y-105283000D01*
X237827358Y-105050974D01*
X237824709Y-105035209D01*
X237570732Y-104507964D01*
X237158892Y-104140000D01*
X237570732Y-103772036D01*
X237824709Y-103244791D01*
X237827358Y-103229026D01*
X237706217Y-102997000D01*
X236347000Y-102997000D01*
X236093000Y-102997000D01*
X234733783Y-102997000D01*
X234612642Y-103229026D01*
X229225000Y-103229026D01*
X229225000Y-103014702D01*
X229232765Y-103013157D01*
X229442809Y-102872809D01*
X229583157Y-102662765D01*
X229613349Y-102510974D01*
X234612642Y-102510974D01*
X234733783Y-102743000D01*
X236093000Y-102743000D01*
X236093000Y-101529076D01*
X236347000Y-101529076D01*
X236347000Y-102743000D01*
X237706217Y-102743000D01*
X237827358Y-102510974D01*
X237824709Y-102495209D01*
X237570732Y-101967964D01*
X237134320Y-101578046D01*
X236581913Y-101384816D01*
X236347000Y-101529076D01*
X236093000Y-101529076D01*
X235858087Y-101384816D01*
X235305680Y-101578046D01*
X234869268Y-101967964D01*
X234615291Y-102495209D01*
X234612642Y-102510974D01*
X229613349Y-102510974D01*
X229632440Y-102415000D01*
X229632440Y-101415000D01*
X229583157Y-101167235D01*
X229498141Y-101040000D01*
X237195908Y-101040000D01*
X238050000Y-101894092D01*
X238050000Y-111465908D01*
X237195908Y-112320000D01*
X233690091Y-112320000D01*
X233690170Y-112229931D01*
X233540529Y-111867771D01*
X233263686Y-111590445D01*
X232901788Y-111440172D01*
X232812440Y-111440094D01*
X232812440Y-111155000D01*
X232763157Y-110907235D01*
X232622809Y-110697191D01*
X232412765Y-110556843D01*
X232165000Y-110507560D01*
X230965000Y-110507560D01*
X230717235Y-110556843D01*
X230507191Y-110697191D01*
X230466346Y-110758320D01*
X230324698Y-110616673D01*
X230091309Y-110520000D01*
X229650750Y-110520000D01*
X229492000Y-110678750D01*
X229492000Y-111478000D01*
X229512000Y-111478000D01*
X229512000Y-111732000D01*
X229492000Y-111732000D01*
X229492000Y-111752000D01*
X229238000Y-111752000D01*
X229238000Y-111732000D01*
X228288750Y-111732000D01*
X228130000Y-111890750D01*
X228130000Y-112181310D01*
X228187447Y-112320000D01*
X225704268Y-112320000D01*
X225770000Y-112161310D01*
X225770000Y-111870750D01*
X225611250Y-111712000D01*
X224662000Y-111712000D01*
X224662000Y-111732000D01*
X224408000Y-111732000D01*
X224408000Y-111712000D01*
X224388000Y-111712000D01*
X224388000Y-111458000D01*
X224408000Y-111458000D01*
X224408000Y-110658750D01*
X224662000Y-110658750D01*
X224662000Y-111458000D01*
X225611250Y-111458000D01*
X225770000Y-111299250D01*
X225770000Y-111028690D01*
X228130000Y-111028690D01*
X228130000Y-111319250D01*
X228288750Y-111478000D01*
X229238000Y-111478000D01*
X229238000Y-110678750D01*
X229079250Y-110520000D01*
X228638691Y-110520000D01*
X228405302Y-110616673D01*
X228226673Y-110795301D01*
X228130000Y-111028690D01*
X225770000Y-111028690D01*
X225770000Y-111008690D01*
X225673327Y-110775301D01*
X225494698Y-110596673D01*
X225261309Y-110500000D01*
X224820750Y-110500000D01*
X224662000Y-110658750D01*
X224408000Y-110658750D01*
X224249250Y-110500000D01*
X223808691Y-110500000D01*
X223575302Y-110596673D01*
X223433654Y-110738320D01*
X223392809Y-110677191D01*
X223182765Y-110536843D01*
X222935000Y-110487560D01*
X221735000Y-110487560D01*
X221487235Y-110536843D01*
X221277191Y-110677191D01*
X221136843Y-110887235D01*
X221130390Y-110919678D01*
X221112414Y-110923254D01*
X221064160Y-110932852D01*
X220817599Y-111097599D01*
X220645276Y-111269922D01*
X220539931Y-111269830D01*
X220177771Y-111419471D01*
X219900445Y-111696314D01*
X219750172Y-112058212D01*
X219749944Y-112320000D01*
X217464092Y-112320000D01*
X216610000Y-111465908D01*
X216610000Y-103155750D01*
X216789000Y-103155750D01*
X216789000Y-103859910D01*
X216885673Y-104093299D01*
X217064302Y-104271927D01*
X217261861Y-104353759D01*
X217089268Y-104507964D01*
X216835291Y-105035209D01*
X216832642Y-105050974D01*
X216953783Y-105283000D01*
X218313000Y-105283000D01*
X218313000Y-102997000D01*
X218567000Y-102997000D01*
X218567000Y-105283000D01*
X219926217Y-105283000D01*
X220047358Y-105050974D01*
X220044709Y-105035209D01*
X219970306Y-104880750D01*
X220940000Y-104880750D01*
X220940000Y-105421309D01*
X221036673Y-105654698D01*
X221215301Y-105833327D01*
X221448690Y-105930000D01*
X222339250Y-105930000D01*
X222498000Y-105771250D01*
X222498000Y-104722000D01*
X221098750Y-104722000D01*
X220940000Y-104880750D01*
X219970306Y-104880750D01*
X219790732Y-104507964D01*
X219618139Y-104353759D01*
X219815698Y-104271927D01*
X219994327Y-104093299D01*
X220091000Y-103859910D01*
X220091000Y-103768691D01*
X220940000Y-103768691D01*
X220940000Y-104309250D01*
X221098750Y-104468000D01*
X222498000Y-104468000D01*
X222498000Y-103418750D01*
X222339250Y-103260000D01*
X221448690Y-103260000D01*
X221215301Y-103356673D01*
X221036673Y-103535302D01*
X220940000Y-103768691D01*
X220091000Y-103768691D01*
X220091000Y-103155750D01*
X219932250Y-102997000D01*
X218567000Y-102997000D01*
X218313000Y-102997000D01*
X216947750Y-102997000D01*
X216789000Y-103155750D01*
X216610000Y-103155750D01*
X216610000Y-101894092D01*
X216624002Y-101880090D01*
X216789000Y-101880090D01*
X216789000Y-102584250D01*
X216947750Y-102743000D01*
X218313000Y-102743000D01*
X218313000Y-101530150D01*
X218567000Y-101530150D01*
X218567000Y-102743000D01*
X219932250Y-102743000D01*
X220091000Y-102584250D01*
X220091000Y-101880090D01*
X219994327Y-101646701D01*
X219815698Y-101468073D01*
X219582309Y-101371400D01*
X218725750Y-101371400D01*
X218567000Y-101530150D01*
X218313000Y-101530150D01*
X218154250Y-101371400D01*
X217297691Y-101371400D01*
X217064302Y-101468073D01*
X216885673Y-101646701D01*
X216789000Y-101880090D01*
X216624002Y-101880090D01*
X217464092Y-101040000D01*
X224771859Y-101040000D01*
X224686843Y-101167235D01*
X224686843Y-101167235D01*
G37*
X224686843Y-101167235D02*
X224637560Y-101415000D01*
X224637560Y-102127638D01*
X224255276Y-102509922D01*
X224149931Y-102509830D01*
X223787771Y-102659471D01*
X223510445Y-102936314D01*
X223376039Y-103260000D01*
X222910750Y-103260000D01*
X222752000Y-103418750D01*
X222752000Y-104468000D01*
X222772000Y-104468000D01*
X222772000Y-104722000D01*
X222752000Y-104722000D01*
X222752000Y-105771250D01*
X222910750Y-105930000D01*
X223801310Y-105930000D01*
X223939221Y-105872875D01*
X224028214Y-105909828D01*
X224420071Y-105910170D01*
X224782231Y-105760529D01*
X224936099Y-105606929D01*
X225152401Y-105462401D01*
X225793410Y-104821392D01*
X226015839Y-104777148D01*
X226262401Y-104612401D01*
X227672401Y-103202401D01*
X227705000Y-103153613D01*
X227705000Y-103371889D01*
X227630445Y-103446314D01*
X227480172Y-103808212D01*
X227479830Y-104200069D01*
X227629471Y-104562229D01*
X227662153Y-104594968D01*
X227460445Y-104796325D01*
X227310172Y-105158223D01*
X227309830Y-105550080D01*
X227459471Y-105912240D01*
X227476200Y-105928998D01*
X226965276Y-106439922D01*
X226859931Y-106439830D01*
X226497771Y-106589471D01*
X226220445Y-106866314D01*
X226070172Y-107228212D01*
X226069830Y-107620069D01*
X226219471Y-107982229D01*
X226268562Y-108031405D01*
X226239022Y-108043611D01*
X226163361Y-108119140D01*
X225688940Y-108119140D01*
X224775067Y-107205267D01*
X224775159Y-107099922D01*
X224625518Y-106737762D01*
X224348675Y-106460436D01*
X223986777Y-106310163D01*
X223594920Y-106309821D01*
X223232760Y-106459462D01*
X222955434Y-106736305D01*
X222805161Y-107098203D01*
X222804819Y-107490060D01*
X222911216Y-107747560D01*
X221575000Y-107747560D01*
X221327235Y-107796843D01*
X221117191Y-107937191D01*
X220976843Y-108147235D01*
X220939495Y-108335000D01*
X220046764Y-108335000D01*
X220123345Y-107950000D01*
X220009271Y-107376511D01*
X219684415Y-106890330D01*
X219374931Y-106683539D01*
X219790732Y-106312036D01*
X220044709Y-105784791D01*
X220047358Y-105769026D01*
X219926217Y-105537000D01*
X218567000Y-105537000D01*
X218567000Y-105557000D01*
X218313000Y-105557000D01*
X218313000Y-105537000D01*
X216953783Y-105537000D01*
X216832642Y-105769026D01*
X216835291Y-105784791D01*
X217089268Y-106312036D01*
X217505069Y-106683539D01*
X217195585Y-106890330D01*
X216870729Y-107376511D01*
X216756655Y-107950000D01*
X216870729Y-108523489D01*
X217195585Y-109009670D01*
X217510366Y-109220000D01*
X217195585Y-109430330D01*
X216870729Y-109916511D01*
X216756655Y-110490000D01*
X216870729Y-111063489D01*
X217195585Y-111549670D01*
X217681766Y-111874526D01*
X218255255Y-111988600D01*
X218624745Y-111988600D01*
X219198234Y-111874526D01*
X219684415Y-111549670D01*
X220009271Y-111063489D01*
X220123345Y-110490000D01*
X220009271Y-109916511D01*
X219968171Y-109855000D01*
X220939495Y-109855000D01*
X220976843Y-110042765D01*
X221117191Y-110252809D01*
X221327235Y-110393157D01*
X221575000Y-110442440D01*
X223675000Y-110442440D01*
X223922765Y-110393157D01*
X224132809Y-110252809D01*
X224273157Y-110042765D01*
X224322440Y-109795000D01*
X224322440Y-108902244D01*
X224836737Y-109416541D01*
X225083299Y-109581288D01*
X225374138Y-109639140D01*
X226163140Y-109639140D01*
X226237565Y-109713695D01*
X226599463Y-109863968D01*
X226991320Y-109864310D01*
X227316690Y-109729870D01*
X227392636Y-109913674D01*
X227669479Y-110191000D01*
X228031377Y-110341273D01*
X228423234Y-110341615D01*
X228785394Y-110191974D01*
X229062720Y-109915131D01*
X229155939Y-109690635D01*
X229331961Y-109763726D01*
X229723818Y-109764068D01*
X230027560Y-109638565D01*
X230027560Y-109795000D01*
X230076843Y-110042765D01*
X230217191Y-110252809D01*
X230427235Y-110393157D01*
X230675000Y-110442440D01*
X232775000Y-110442440D01*
X233022765Y-110393157D01*
X233232809Y-110252809D01*
X233373157Y-110042765D01*
X233410505Y-109855000D01*
X234556560Y-109855000D01*
X234556560Y-111353600D01*
X234605843Y-111601365D01*
X234746191Y-111811409D01*
X234956235Y-111951757D01*
X235204000Y-112001040D01*
X237236000Y-112001040D01*
X237483765Y-111951757D01*
X237693809Y-111811409D01*
X237834157Y-111601365D01*
X237883440Y-111353600D01*
X237883440Y-109626400D01*
X237834157Y-109378635D01*
X237693809Y-109168591D01*
X237483765Y-109028243D01*
X237447434Y-109021016D01*
X237464415Y-109009670D01*
X237789271Y-108523489D01*
X237903345Y-107950000D01*
X237789271Y-107376511D01*
X237464415Y-106890330D01*
X237154931Y-106683539D01*
X237570732Y-106312036D01*
X237824709Y-105784791D01*
X237827358Y-105769026D01*
X237706217Y-105537000D01*
X236347000Y-105537000D01*
X236347000Y-105557000D01*
X236093000Y-105557000D01*
X236093000Y-105537000D01*
X234733783Y-105537000D01*
X234612642Y-105769026D01*
X234615291Y-105784791D01*
X234869268Y-106312036D01*
X235285069Y-106683539D01*
X234975585Y-106890330D01*
X234650729Y-107376511D01*
X234536655Y-107950000D01*
X234613236Y-108335000D01*
X233410505Y-108335000D01*
X233373157Y-108147235D01*
X233342251Y-108100981D01*
X233558493Y-107885116D01*
X233708766Y-107523218D01*
X233709108Y-107131361D01*
X233559467Y-106769201D01*
X233282624Y-106491875D01*
X232920726Y-106341602D01*
X232528869Y-106341260D01*
X232166709Y-106490901D01*
X232091048Y-106566430D01*
X230981217Y-106566430D01*
X230690378Y-106624282D01*
X230443816Y-106789029D01*
X229439025Y-107793820D01*
X229333680Y-107793728D01*
X228971520Y-107943369D01*
X228866428Y-108048278D01*
X228866428Y-107961293D01*
X228940983Y-107886868D01*
X229091256Y-107524970D01*
X229091598Y-107133113D01*
X228941957Y-106770953D01*
X228856895Y-106685743D01*
X228997148Y-106475839D01*
X229055000Y-106185000D01*
X229055000Y-105988122D01*
X229129555Y-105913697D01*
X229279828Y-105551799D01*
X229280170Y-105159942D01*
X229164811Y-104880750D01*
X230040000Y-104880750D01*
X230040000Y-105421309D01*
X230136673Y-105654698D01*
X230315301Y-105833327D01*
X230548690Y-105930000D01*
X231439250Y-105930000D01*
X231598000Y-105771250D01*
X231598000Y-104722000D01*
X231852000Y-104722000D01*
X231852000Y-105771250D01*
X232010750Y-105930000D01*
X232901310Y-105930000D01*
X233134699Y-105833327D01*
X233313327Y-105654698D01*
X233410000Y-105421309D01*
X233410000Y-104880750D01*
X233251250Y-104722000D01*
X231852000Y-104722000D01*
X231598000Y-104722000D01*
X230198750Y-104722000D01*
X230040000Y-104880750D01*
X229164811Y-104880750D01*
X229130529Y-104797782D01*
X229097847Y-104765043D01*
X229299555Y-104563686D01*
X229449828Y-104201788D01*
X229450170Y-103809931D01*
X229433131Y-103768691D01*
X230040000Y-103768691D01*
X230040000Y-104309250D01*
X230198750Y-104468000D01*
X231598000Y-104468000D01*
X231598000Y-103418750D01*
X231852000Y-103418750D01*
X231852000Y-104468000D01*
X233251250Y-104468000D01*
X233410000Y-104309250D01*
X233410000Y-103768691D01*
X233313327Y-103535302D01*
X233134699Y-103356673D01*
X232901310Y-103260000D01*
X232010750Y-103260000D01*
X231852000Y-103418750D01*
X231598000Y-103418750D01*
X231439250Y-103260000D01*
X230548690Y-103260000D01*
X230315301Y-103356673D01*
X230136673Y-103535302D01*
X230040000Y-103768691D01*
X229433131Y-103768691D01*
X229300529Y-103447771D01*
X229225000Y-103372110D01*
X229225000Y-103229026D01*
X234612642Y-103229026D01*
X234615291Y-103244791D01*
X234869268Y-103772036D01*
X235281108Y-104140000D01*
X234869268Y-104507964D01*
X234615291Y-105035209D01*
X234612642Y-105050974D01*
X234733783Y-105283000D01*
X236093000Y-105283000D01*
X236093000Y-102997000D01*
X236347000Y-102997000D01*
X236347000Y-105283000D01*
X237706217Y-105283000D01*
X237827358Y-105050974D01*
X237824709Y-105035209D01*
X237570732Y-104507964D01*
X237158892Y-104140000D01*
X237570732Y-103772036D01*
X237824709Y-103244791D01*
X237827358Y-103229026D01*
X237706217Y-102997000D01*
X236347000Y-102997000D01*
X236093000Y-102997000D01*
X234733783Y-102997000D01*
X234612642Y-103229026D01*
X229225000Y-103229026D01*
X229225000Y-103014702D01*
X229232765Y-103013157D01*
X229442809Y-102872809D01*
X229583157Y-102662765D01*
X229613349Y-102510974D01*
X234612642Y-102510974D01*
X234733783Y-102743000D01*
X236093000Y-102743000D01*
X236093000Y-101529076D01*
X236347000Y-101529076D01*
X236347000Y-102743000D01*
X237706217Y-102743000D01*
X237827358Y-102510974D01*
X237824709Y-102495209D01*
X237570732Y-101967964D01*
X237134320Y-101578046D01*
X236581913Y-101384816D01*
X236347000Y-101529076D01*
X236093000Y-101529076D01*
X235858087Y-101384816D01*
X235305680Y-101578046D01*
X234869268Y-101967964D01*
X234615291Y-102495209D01*
X234612642Y-102510974D01*
X229613349Y-102510974D01*
X229632440Y-102415000D01*
X229632440Y-101415000D01*
X229583157Y-101167235D01*
X229498141Y-101040000D01*
X237195908Y-101040000D01*
X238050000Y-101894092D01*
X238050000Y-111465908D01*
X237195908Y-112320000D01*
X233690091Y-112320000D01*
X233690170Y-112229931D01*
X233540529Y-111867771D01*
X233263686Y-111590445D01*
X232901788Y-111440172D01*
X232812440Y-111440094D01*
X232812440Y-111155000D01*
X232763157Y-110907235D01*
X232622809Y-110697191D01*
X232412765Y-110556843D01*
X232165000Y-110507560D01*
X230965000Y-110507560D01*
X230717235Y-110556843D01*
X230507191Y-110697191D01*
X230466346Y-110758320D01*
X230324698Y-110616673D01*
X230091309Y-110520000D01*
X229650750Y-110520000D01*
X229492000Y-110678750D01*
X229492000Y-111478000D01*
X229512000Y-111478000D01*
X229512000Y-111732000D01*
X229492000Y-111732000D01*
X229492000Y-111752000D01*
X229238000Y-111752000D01*
X229238000Y-111732000D01*
X228288750Y-111732000D01*
X228130000Y-111890750D01*
X228130000Y-112181310D01*
X228187447Y-112320000D01*
X225704268Y-112320000D01*
X225770000Y-112161310D01*
X225770000Y-111870750D01*
X225611250Y-111712000D01*
X224662000Y-111712000D01*
X224662000Y-111732000D01*
X224408000Y-111732000D01*
X224408000Y-111712000D01*
X224388000Y-111712000D01*
X224388000Y-111458000D01*
X224408000Y-111458000D01*
X224408000Y-110658750D01*
X224662000Y-110658750D01*
X224662000Y-111458000D01*
X225611250Y-111458000D01*
X225770000Y-111299250D01*
X225770000Y-111028690D01*
X228130000Y-111028690D01*
X228130000Y-111319250D01*
X228288750Y-111478000D01*
X229238000Y-111478000D01*
X229238000Y-110678750D01*
X229079250Y-110520000D01*
X228638691Y-110520000D01*
X228405302Y-110616673D01*
X228226673Y-110795301D01*
X228130000Y-111028690D01*
X225770000Y-111028690D01*
X225770000Y-111008690D01*
X225673327Y-110775301D01*
X225494698Y-110596673D01*
X225261309Y-110500000D01*
X224820750Y-110500000D01*
X224662000Y-110658750D01*
X224408000Y-110658750D01*
X224249250Y-110500000D01*
X223808691Y-110500000D01*
X223575302Y-110596673D01*
X223433654Y-110738320D01*
X223392809Y-110677191D01*
X223182765Y-110536843D01*
X222935000Y-110487560D01*
X221735000Y-110487560D01*
X221487235Y-110536843D01*
X221277191Y-110677191D01*
X221136843Y-110887235D01*
X221130390Y-110919678D01*
X221112414Y-110923254D01*
X221064160Y-110932852D01*
X220817599Y-111097599D01*
X220645276Y-111269922D01*
X220539931Y-111269830D01*
X220177771Y-111419471D01*
X219900445Y-111696314D01*
X219750172Y-112058212D01*
X219749944Y-112320000D01*
X217464092Y-112320000D01*
X216610000Y-111465908D01*
X216610000Y-103155750D01*
X216789000Y-103155750D01*
X216789000Y-103859910D01*
X216885673Y-104093299D01*
X217064302Y-104271927D01*
X217261861Y-104353759D01*
X217089268Y-104507964D01*
X216835291Y-105035209D01*
X216832642Y-105050974D01*
X216953783Y-105283000D01*
X218313000Y-105283000D01*
X218313000Y-102997000D01*
X218567000Y-102997000D01*
X218567000Y-105283000D01*
X219926217Y-105283000D01*
X220047358Y-105050974D01*
X220044709Y-105035209D01*
X219970306Y-104880750D01*
X220940000Y-104880750D01*
X220940000Y-105421309D01*
X221036673Y-105654698D01*
X221215301Y-105833327D01*
X221448690Y-105930000D01*
X222339250Y-105930000D01*
X222498000Y-105771250D01*
X222498000Y-104722000D01*
X221098750Y-104722000D01*
X220940000Y-104880750D01*
X219970306Y-104880750D01*
X219790732Y-104507964D01*
X219618139Y-104353759D01*
X219815698Y-104271927D01*
X219994327Y-104093299D01*
X220091000Y-103859910D01*
X220091000Y-103768691D01*
X220940000Y-103768691D01*
X220940000Y-104309250D01*
X221098750Y-104468000D01*
X222498000Y-104468000D01*
X222498000Y-103418750D01*
X222339250Y-103260000D01*
X221448690Y-103260000D01*
X221215301Y-103356673D01*
X221036673Y-103535302D01*
X220940000Y-103768691D01*
X220091000Y-103768691D01*
X220091000Y-103155750D01*
X219932250Y-102997000D01*
X218567000Y-102997000D01*
X218313000Y-102997000D01*
X216947750Y-102997000D01*
X216789000Y-103155750D01*
X216610000Y-103155750D01*
X216610000Y-101894092D01*
X216624002Y-101880090D01*
X216789000Y-101880090D01*
X216789000Y-102584250D01*
X216947750Y-102743000D01*
X218313000Y-102743000D01*
X218313000Y-101530150D01*
X218567000Y-101530150D01*
X218567000Y-102743000D01*
X219932250Y-102743000D01*
X220091000Y-102584250D01*
X220091000Y-101880090D01*
X219994327Y-101646701D01*
X219815698Y-101468073D01*
X219582309Y-101371400D01*
X218725750Y-101371400D01*
X218567000Y-101530150D01*
X218313000Y-101530150D01*
X218154250Y-101371400D01*
X217297691Y-101371400D01*
X217064302Y-101468073D01*
X216885673Y-101646701D01*
X216789000Y-101880090D01*
X216624002Y-101880090D01*
X217464092Y-101040000D01*
X224771859Y-101040000D01*
X224686843Y-101167235D01*
M02*
